<?xml version="1.0" encoding="UTF-8"?>
<svg width="2100px" height="1200px" viewBox="0 0 2100 1200" version="1.1" xmlns="http://www.w3.org/2000/svg" xmlns:xlink="http://www.w3.org/1999/xlink">
    <title>90</title>
    <defs>
        <path d="M0,0 L2100,0 L2100,1200 L0,1200 L0,0 Z" id="path-1"></path>
    </defs>
    <g id="90" stroke="none" fill="none" xlink:href="#path-1" fill-rule="evenodd" stroke-width="1">
        <g id="Layer_1" transform="translate(572, 276)" fill="#000000">
            <path d="M565.55458,582 C577.562108,594 589.569636,603.6 603.97867,612 L673.622334,542.4 C659.2133,535.2 646.005019,526.8 633.997491,516 C621.989962,504 612.38394,489.6 605.179423,474 C597.974906,458.4 594.372647,440.4 593.171895,423.6 L593.171895,229.2 C593.171895,211.2 596.774153,193.2 603.97867,177.6 C611.183187,162 620.78921,147.6 632.796738,135.6 C644.804266,123.6 659.2133,114 676.023839,106.8 C692.834379,99.6 709.644918,96 728.856964,96 C748.069009,96 764.879548,99.6 780.489335,106.8 C796.099122,114 810.508156,123.6 822.515684,135.6 C834.523212,147.6 844.129235,162 851.333752,177.6 C858.538269,193.2 862.140527,211.2 862.140527,229.2 L862.140527,354 L957,259.2 L957,229.2 C957,198 950.996236,168 938.988708,139.2 C926.981179,111.6 910.17064,86.4 889.757842,66 C869.345044,45.6 845.329987,30 817.712673,18 C790.095358,6 760.076537,0 728.856964,0 C697.63739,0 667.61857,6 640.001255,18 C612.38394,30 587.16813,45.6 566.755332,67.2 C546.342535,88.8 529.531995,112.8 517.524467,140.4 C505.516939,168 499.513174,198 499.513174,230.4 L499.513174,422.4 C499.513174,453.6 505.516939,482.4 517.524467,510 C529.531995,536.4 545.141782,560.4 565.55458,582 L565.55458,582 Z" id="Path" fill-rule="nonzero"></path>
            <path d="M446.68005,148.8 C435.873275,121.2 419.062735,94.8 396.248432,73.2 C373.434128,49.2 348.218319,32.4 319.400251,20.4 C290.582183,9.6 261.764115,3.6 231.745295,3.6 C201.726474,3.6 172.908407,9.6 144.090339,20.4 C115.272271,31.2 90.0564617,49.2 67.2421581,73.2 C44.4278545,96 27.6173149,121.2 16.8105395,148.8 C6.00376412,176.4 0,206.4 0,235.2 C0,264 6.00376412,294 16.8105395,322.8 C27.6173149,351.6 44.4278545,376.8 67.2421581,399.6 C74.446675,406.8 84.0526976,414 92.4579674,421.2 L162.101631,351.6 C152.495609,346.8 144.090339,340.8 135.685069,331.2 C121.276035,318 111.670013,303.6 104.465496,286.8 C98.4617315,270 94.859473,253.2 94.859473,236.4 C94.859473,219.6 98.4617315,202.8 104.465496,186 C110.46926,169.2 121.276035,154.8 135.685069,141.6 C148.89335,127.2 163.302384,117.6 180.112923,110.4 C196.923463,104.4 213.734003,100.8 230.544542,100.8 C247.355082,100.8 265.366374,104.4 282.176913,110.4 C298.987453,116.4 314.59724,127.2 327.805521,141.6 C342.214555,154.8 351.820577,169.2 359.025094,186 C365.028858,202.8 368.631117,219.6 368.631117,236.4 C368.631117,253.2 365.028858,271.2 359.025094,286.8 C353.02133,303.6 342.214555,318 327.805521,331.2 L148.89335,510 L12.0075282,648 L147.692597,648 L325.404015,470.4 L397.449184,399.6 C420.263488,376.8 437.074028,351.6 447.880803,322.8 C458.687578,294 464.691343,265.2 464.691343,235.2 C463.49059,205.2 458.687578,176.4 446.68005,148.8 Z" id="Path" fill-rule="nonzero"></path>
        </g>
    </g>
</svg>