<?xml version="1.0" encoding="UTF-8"?>
<svg width="2100px" height="1200px" viewBox="0 0 2100 1200" version="1.1" xmlns="http://www.w3.org/2000/svg" xmlns:xlink="http://www.w3.org/1999/xlink">
    <title>Campminder</title>
    <defs>
        <path d="M0,0 L2100,0 L2100,1200 L0,1200 L0,0 Z" id="path-1"></path>
    </defs>
    <g id="Campminder" stroke="none" fill="none" xlink:href="#path-1" fill-rule="evenodd" stroke-width="1">
        <g id="Group" transform="translate(122, 447)" fill="#000000">
            <path d="M106.179532,126.681655 C111.744532,116.421646 119.686773,108.532095 129.966146,103.013004 C140.246356,97.4939132 152.245365,94.7347856 165.964845,94.7347856 C176.592658,94.7347856 186.659793,96.7558612 196.186304,100.817237 C205.692761,104.878613 213.673439,110.941004 220.107448,119.044531 C226.542293,127.148058 230.175419,137.058684 231.044428,148.776409 L199.161824,148.776409 C197.963595,139.992503 194.350523,133.385976 188.360209,128.994441 C182.350678,124.602071 174.892241,122.406303 165.984063,122.406303 C158.274115,122.406303 151.666304,124.09722 146.178178,127.458992 C140.690887,130.820765 136.536356,135.484786 133.715419,141.430994 C130.893646,147.377202 129.463959,154.236991 129.463959,161.990298 C129.463959,169.744441 130.874428,176.701188 133.715419,182.802863 C136.536356,188.923764 140.690887,193.665518 146.178178,197.027291 C151.666304,200.389063 158.254896,202.07998 165.984063,202.07998 C174.892241,202.07998 182.350678,199.806479 188.360209,195.220192 C194.350523,190.653129 197.963595,184.065827 199.161824,175.437388 L231.044428,175.437388 C230.175419,187.155949 226.542293,197.124249 220.107448,205.305509 C213.673439,213.505995 205.71198,219.569221 196.186304,223.532803 C186.679011,227.497221 176.592658,229.479847 165.964845,229.479847 C152.420002,229.479847 140.458595,226.681435 130.082293,221.065386 C119.705991,215.468561 111.744532,207.579011 106.160313,197.396735 C100.595313,187.233683 97.7935946,175.418164 97.7935946,161.971074 C97.7935946,148.523983 100.576095,136.922441 106.160313,126.662431 L106.179532,126.681655 Z" id="Path" fill-rule="nonzero"></path>
            <path d="M259.7,164.827995 C266.984635,158.279142 278.946043,154.140032 295.582552,152.410667 L341.358437,147.746646 C341.010833,138.088446 338.479845,131.034741 333.764635,126.545413 C329.050261,122.05692 321.552552,119.821867 311.253959,119.821867 C302.519583,119.821867 295.60177,121.842943 290.559011,125.904319 C285.496198,129.965694 282.635989,136.300571 281.940782,144.908949 L251.604011,144.908949 C252.28,134.571206 255.236302,125.651893 260.472917,118.151011 C265.709532,110.650129 272.781928,104.878613 281.68927,100.817237 C290.597448,96.7750856 300.799948,94.7347856 312.29677,94.7347856 C324.644218,94.7347856 335.348905,97.0275111 344.450104,101.594574 C353.532083,106.1608 360.566043,112.709654 365.531928,121.240298 C370.497813,129.771778 372.990365,140.245764 372.990365,152.663093 L372.990365,199.475484 L391.771822,199.475484 L391.771822,226.894576 L365.801822,226.894576 C360.314532,226.894576 356.063072,225.379187 353.068333,222.366798 C350.073595,219.355245 348.566198,215.079893 348.566198,209.560801 L348.566198,190.673189 L349.590626,190.673189 C346.672761,202.235447 340.894687,211.581877 332.23802,218.733375 C323.581354,225.884874 310.847865,229.459787 294.055937,229.459787 C277.264845,229.459787 265.091198,225.496205 258.560261,217.56737 C252.047707,209.638535 248.782239,200.855465 248.782239,191.197265 C248.782239,180.159918 252.415365,171.376013 259.719218,164.827995 L259.7,164.827995 Z M285.418489,199.611726 C289.10927,202.448588 294.21052,203.887079 300.722239,203.887079 C308.605989,203.887079 315.639948,202.29312 321.804063,199.106875 C327.968178,195.919795 332.77948,191.469751 336.199532,185.795192 C339.619583,180.101409 341.339218,173.65035 341.339218,166.401893 L301.225261,171.318339 C300.529218,171.318339 299.504791,171.493031 298.133595,171.842415 C291.795678,172.542018 287.158178,174.039018 284.240313,176.370193 C281.322448,178.702203 279.872707,182.025527 279.872707,186.320103 C279.872707,192.36327 281.708489,196.79409 285.39927,199.630951 L285.418489,199.611726 Z" id="Shape" fill-rule="nonzero"></path>
            <path d="M406.513223,97.3392817 L437.89364,97.3392817 L437.89364,131.210269 L436.870047,131.210269 C440.116297,120.347615 445.565151,111.564545 453.19739,104.840164 C460.830464,98.1166185 470.723797,94.7548459 482.897444,94.7548459 C493.003016,94.7548459 501.060568,97.3008328 507.070099,102.391971 C513.060412,107.483109 517.388745,114.459915 520.055099,123.339943 C522.702234,132.220807 524.035829,142.947219 524.035829,155.540074 L524.035829,226.915472 L494.47114,226.915472 L494.47114,158.12451 C494.47114,149.6716 493.775932,142.869485 492.423119,137.700613 C491.051088,132.531742 488.732338,128.684343 485.486088,126.196865 C482.220619,123.690163 477.853849,122.446424 472.365723,122.446424 C464.134369,122.446424 457.487286,124.642191 452.444527,129.033726 C447.381714,133.426097 443.690932,139.605506 441.391401,147.533506 C439.072651,155.462341 437.913694,165.469925 437.913694,177.537034 L437.913694,226.934696 L406.533277,226.934696 L406.533277,97.3392817 L406.513223,97.3392817 Z M518.895306,133.037428 L519.146818,133.037428 C522.393068,121.824554 528.151088,112.65198 536.383277,105.501318 C544.614631,98.3498195 555.493119,94.7749062 569.038797,94.7749062 C584.806297,94.7749062 596.207027,100.079185 603.240151,110.67019 C610.27411,121.280419 613.790255,136.223673 613.790255,155.540074 L613.790255,226.915472 L582.409838,226.915472 L582.409838,158.12451 C582.409838,149.6716 581.714631,142.869485 580.361818,137.700613 C578.989786,132.531742 576.671036,128.684343 573.424786,126.196865 C570.159318,123.690163 565.792547,122.446424 560.304421,122.446424 C552.073068,122.446424 545.425984,124.642191 540.38239,129.033726 C535.320412,133.426097 531.629631,139.605506 529.330099,147.533506 C527.011349,155.462341 525.851556,165.469925 525.851556,177.537034 L525.851556,226.934696 L494.993381,226.934696 L518.91536,133.056653 L518.895306,133.037428 Z" id="Shape" fill-rule="nonzero"></path>
            <path d="M640.75293,97.3392817 L672.133347,97.3392817 L672.133347,131.987606 L669.814597,131.987606 C674.104493,120.60004 680.693086,111.564545 689.620482,104.840164 C698.52866,98.1166185 710.276993,94.7548459 724.846264,94.7548459 C737.522097,94.7548459 748.381367,97.6502164 757.386473,103.421733 C766.390743,109.19325 773.19241,117.219043 777.82991,127.479053 C782.46741,137.739898 784.766941,149.340605 784.766941,162.26362 C784.766941,175.185799 782.448191,186.709608 777.82991,196.794925 C773.19241,206.880243 766.390743,214.867588 757.386473,220.716838 C748.381367,226.585313 737.541315,229.519132 724.846264,229.519132 C710.103191,229.519132 698.238712,226.118911 689.234441,219.297571 C680.229336,212.496293 673.75689,203.480022 669.814597,192.267148 L672.133347,192.267148 L672.133347,277.614547 L640.75293,277.614547 L640.75293,97.3392817 Z M734.488086,197.689281 C740.401525,194.754625 745.039025,190.36309 748.381367,184.494616 C751.724545,178.625305 753.405743,171.222217 753.405743,162.244395 C753.405743,153.266573 751.724545,145.862649 748.381367,139.994175 C745.039025,134.124864 740.401525,129.733329 734.488086,126.79951 C728.575482,123.864854 721.580795,122.407139 713.523243,122.407139 C705.465691,122.407139 698.393295,123.864854 692.30689,126.79951 C686.219649,129.733329 681.408347,134.164149 677.910586,140.110357 C674.394441,146.056566 672.635534,153.422041 672.635534,162.224335 C672.635534,171.027465 674.394441,178.392104 677.910586,184.339148 C681.427565,190.285357 686.219649,194.735401 692.30689,197.649996 C698.393295,200.584651 705.465691,202.041531 713.523243,202.041531 C721.580795,202.041531 728.575482,200.584651 734.488086,197.649996 L734.488086,197.689281 Z" id="Shape" fill-rule="nonzero"></path>
            <path d="M805.799466,97.3392817 L837.181554,97.3392817 L837.181554,131.210269 L836.153784,131.210269 C839.404212,120.347615 844.85223,111.564545 852.481126,104.840164 C860.118378,98.1166185 870.011712,94.7548459 882.186194,94.7548459 C892.288423,94.7548459 900.343468,97.3008328 906.359685,102.391971 C912.342477,107.483109 916.670811,114.459915 919.344685,123.339943 C921.985135,132.220807 923.322072,142.947219 923.322072,155.540074 L923.322072,226.915472 L893.759054,226.915472 L893.759054,158.12451 C893.759054,149.6716 893.065518,142.869485 891.711869,137.700613 C890.333153,132.531742 888.018581,128.684343 884.768153,126.196865 C881.509369,123.690163 877.139257,122.446424 871.649459,122.446424 C863.418941,122.446424 856.776036,124.642191 851.729099,129.033726 C846.66545,133.426097 842.980518,139.605506 840.674302,147.533506 C838.35973,155.462341 837.198266,165.469925 837.198266,177.537034 L837.198266,226.934696 L805.818685,226.934696 L805.818685,97.3392817 L805.799466,97.3392817 Z M918.183221,133.037428 L918.433896,133.037428 C921.675968,121.824554 927.433153,112.65198 935.672027,105.501318 C943.902545,98.3498195 954.781869,94.7749062 968.326712,94.7749062 C984.094212,94.7749062 995.491599,100.079185 1002.52723,110.67019 C1009.56286,121.280419 1013.07232,136.223673 1013.07232,155.540074 L1013.07232,226.915472 L981.696081,226.915472 L981.696081,158.12451 C981.696081,149.6716 981.002545,142.869485 979.648896,137.700613 C978.278536,132.531742 975.955608,128.684343 972.713536,126.196865 C969.446396,123.690163 965.076284,122.446424 959.586486,122.446424 C951.355968,122.446424 944.713063,124.642191 939.666126,129.033726 C934.602477,133.426097 930.917545,139.605506 928.619685,147.533506 C926.296757,155.462341 925.135293,165.469925 925.135293,177.537034 L925.135293,226.934696 L894.277117,226.934696 L918.199932,133.056653 L918.183221,133.037428 Z" id="Shape" fill-rule="nonzero"></path>
            <path d="M1032.29079,199.494708 L1068.28782,199.494708 L1068.28782,125.009963 L1039.47682,125.009963 L1039.47682,97.3384458 L1079.59329,97.3384458 C1085.2502,97.3384458 1089.62032,98.7961613 1092.71198,101.729981 C1095.80365,104.664636 1097.34948,109.153129 1097.34948,115.177907 L1097.34948,199.494708 L1133.59718,199.494708 L1133.59718,226.914636 L1032.26572,226.914636 L1032.26572,199.494708 L1032.29079,199.494708 Z" id="Path" fill-rule="nonzero"></path>
            <path d="M1152.6736,97.3384458 L1184.04984,97.3384458 L1184.04984,134.31878 L1183.03043,134.31878 C1185.94662,122.076144 1192.02968,112.417944 1201.28797,105.345015 C1210.54626,98.27125 1222.29459,94.7347856 1236.51626,94.7347856 C1252.28376,94.7347856 1264.55016,99.7874746 1273.28203,109.872792 C1282.03896,119.95811 1286.40072,134.31878 1286.40072,152.934742 L1286.40072,226.895412 L1254.77381,226.895412 L1254.77381,157.326277 C1254.77381,144.734257 1252.49266,135.77566 1247.95543,130.432096 C1243.40984,125.088533 1235.91464,122.406303 1225.4364,122.406303 C1216.86329,122.406303 1209.5352,124.349645 1203.45214,128.217105 C1197.36072,132.102953 1192.61459,138.010712 1189.17198,145.939547 C1185.72937,153.867547 1184.03313,163.700439 1184.03313,175.418164 L1184.03313,226.875351 L1152.64854,226.875351 L1152.64854,97.3384458 L1152.6736,97.3384458 Z" id="Path" fill-rule="nonzero"></path>
            <path d="M1334.27142,220.695942 C1325.26381,214.826631 1318.46214,206.820898 1313.82464,196.637786 C1309.18714,186.474735 1306.88928,174.912477 1306.88928,161.990298 C1306.88928,149.067283 1309.20385,137.291049 1313.82464,127.205731 C1318.46214,117.120413 1325.26381,109.191578 1334.27142,103.420897 C1343.27068,97.6493806 1354.11658,94.75401 1366.80912,94.75401 C1381.72432,94.75401 1393.58964,98.2127408 1402.42178,105.091753 C1411.25392,111.98999 1417.72135,120.948588 1421.84079,131.985934 L1419.26718,131.985934 L1419.26718,36.8253687 L1450.90245,36.8253687 L1450.90245,226.894576 L1419.26718,226.894576 L1419.26718,192.246252 L1421.84079,192.246252 C1417.72135,203.633817 1411.17036,212.670149 1402.1711,219.393694 C1393.16349,226.117239 1381.37338,229.479012 1366.80912,229.479012 C1354.11658,229.479012 1343.27068,226.544356 1334.27142,220.675881 L1334.27142,220.695942 Z M1399.19642,197.551366 C1405.35468,194.539813 1410.20944,190.012035 1413.72725,183.968033 C1417.23671,177.944091 1418.9998,170.6179 1418.9998,161.990298 C1418.9998,153.36186 1417.23671,146.133464 1413.72725,140.264153 C1410.20944,134.395678 1405.35468,129.965694 1399.19642,126.953305 C1393.0298,123.940916 1386.06937,122.425528 1378.36527,122.425528 C1370.65282,122.425528 1363.27459,123.883243 1357.28345,126.817063 C1351.27559,129.751718 1346.6548,134.143253 1343.38766,140.011727 C1340.12052,145.880202 1338.49948,153.206392 1338.49948,161.990298 C1338.49948,170.773368 1340.12052,177.885581 1343.38766,183.85185 C1346.63809,189.798059 1351.27559,194.325836 1357.28345,197.435183 C1363.27459,200.543695 1370.30187,202.098368 1378.36527,202.098368 C1386.42032,202.098368 1393.0298,200.58298 1399.19642,197.570591 L1399.19642,197.551366 Z" id="Shape" fill-rule="nonzero"></path>
            <path d="M1587.83822,149.57297 L1572.92302,163.544972 L1572.92302,153.459654 C1572.92302,142.596999 1569.78957,134.104804 1563.53104,127.983904 C1557.2725,121.862167 1548.82473,118.81133 1538.19608,118.81133 C1531.33592,118.81133 1525.34477,120.22976 1520.18921,123.086682 C1515.05036,125.923543 1511.07297,129.984919 1508.23198,135.23236 C1505.4077,140.49819 1503.97885,146.833067 1503.97885,154.236991 L1503.97885,165.352071 C1504.15432,177.420015 1507.22092,187.038931 1513.23714,194.190429 C1519.21993,201.341092 1527.8014,204.916841 1538.94811,204.916841 C1548.03092,204.916841 1555.45092,202.895765 1561.1914,198.83439 C1566.93187,194.792238 1570.74214,188.963048 1572.63056,181.384433 L1603.73941,181.384433 C1601.17417,195.531126 1594.48948,207.07416 1583.68536,216.031921 C1572.88124,224.990519 1558.06631,229.479847 1539.20714,229.479847 C1525.31135,229.479847 1513.40426,226.545192 1503.45243,220.676717 C1493.50061,214.808243 1485.9302,206.704716 1480.69108,196.366972 C1475.46032,186.028393 1472.84493,174.21371 1472.84493,160.941311 C1472.84493,147.668913 1475.55223,135.290033 1480.94176,125.379407 C1486.33964,115.468781 1493.92676,107.890166 1503.70311,102.624336 C1513.48782,97.3576703 1524.70973,94.7347856 1537.38556,94.7347856 C1557.79056,94.7347856 1573.90901,100.389284 1585.73255,111.679891 C1597.55608,122.969663 1603.47203,138.613357 1603.47203,158.609301 L1603.47203,168.694619 L1499.57532,168.694619 L1499.57532,149.553745 L1587.77973,149.553745 L1587.83822,149.57297 Z" id="Path" fill-rule="nonzero"></path>
            <path d="M1632.69245,102.25322 C1636.0348,98.9884058 1641.05667,97.3367741 1647.74971,97.3367741 L1726.17777,97.3367741 L1726.17777,125.008292 L1659.32257,125.008292 L1659.32257,226.912128 L1627.6873,226.912128 L1627.6873,117.234924 C1627.6873,110.511379 1629.36682,105.517199 1632.70917,102.23316 L1632.69245,102.25322 Z" id="Path" fill-rule="nonzero"></path>
            <polygon id="Path" fill-rule="nonzero" points="1096.55568 43.491157 1096.55568 72.9119331 1065.02068 73.1646094 1065.02068 43.4717653 1096.55568 43.4717653"></polygon>
            <path d="M19.8059687,0 L128.845626,0 L128.845626,31.8109614 L27.5158333,31.8109614 L27.5158333,99.0477509 L0,99.0477509 L0,20.1708864 C0,13.4472576 1.623125,8.4142945 4.88870209,5.05244667 C8.13494374,1.69062391 13.1202813,0 19.8059687,0 Z" id="Path" fill-rule="nonzero"></path>
            <path d="M1835.19662,325.980776 L1726.1527,325.980776 L1726.1527,294.170149 L1827.48417,294.170149 L1827.48417,226.933025 L1855,226.933025 L1855,305.81014 C1855,312.533685 1853.37896,317.586374 1850.11182,320.948147 C1846.84468,324.309919 1841.88131,326 1835.19662,326 L1835.19662,325.980776 Z" id="Path" fill-rule="nonzero"></path>
        </g>
    </g>
</svg>