<?xml version="1.0" encoding="UTF-8"?>
<svg width="2100px" height="1200px" viewBox="0 0 2100 1200" version="1.1" xmlns="http://www.w3.org/2000/svg" xmlns:xlink="http://www.w3.org/1999/xlink">
    <title>HVG</title>
    <defs>
        <path d="M0,0 L2100,0 L2100,1200 L0,1200 L0,0 Z" id="path-1"></path>
    </defs>
    <g id="HVG" stroke="none" fill="none" xlink:href="#path-1" fill-rule="evenodd" stroke-width="1">
        <g id="Layer_1" transform="translate(397, 279)" fill="#000000">
            <path d="M0,0 L0,528.069948 L415.803109,528.069948 L415.803109,0 L0,0 Z M269.440415,495.637306 L237.839378,495.637306 L237.839378,390.854922 L180.458549,390.854922 L180.458549,494.805699 L148.857513,494.805699 L148.857513,272.766839 L180.458549,272.766839 L180.458549,369.233161 L237.839378,369.233161 L237.839378,272.766839 L269.440415,272.766839 L269.440415,495.637306 L269.440415,495.637306 Z M447.404145,0 L447.404145,528.069948 L863.207254,528.069948 L863.207254,0 L447.404145,0 Z M667.779793,495.637306 L640.336788,495.637306 L590.440415,272.766839 L619.546632,272.766839 L655.305699,437.42487 L689.401554,272.766839 L717.676166,272.766839 L667.779793,495.637306 L667.779793,495.637306 Z M889.818653,0 L889.818653,528.069948 L1305.62176,528.069948 L1305.62176,0 L889.818653,0 Z M1156.76425,495.637306 L1136.8057,495.637306 L1133.47927,469.857513 C1130.15285,478.173575 1125.99482,484.826425 1119.34197,489.816062 C1112.68912,494.805699 1104.37306,498.132124 1093.56218,498.132124 C1079.42487,498.132124 1068.61399,494.805699 1060.29793,488.984456 C1051.98187,483.163212 1046.16062,474.015544 1042.00259,463.204663 C1037.84456,451.562176 1036.18135,438.256477 1036.18135,422.455959 L1036.18135,347.611399 C1036.18135,330.979275 1037.84456,317.673575 1041.17098,306.031088 C1044.49741,294.388601 1050.31865,286.072539 1059.46632,279.419689 C1067.78238,273.598446 1080.25648,270.272021 1096.05699,270.272021 C1110.1943,270.272021 1121.00518,272.766839 1130.15285,276.92487 C1138.46891,281.914508 1145.12176,288.567358 1148.44819,298.546632 C1152.60622,308.525907 1154.26943,320.168394 1154.26943,335.137306 L1154.26943,343.453368 L1125.16321,343.453368 L1125.16321,336.800518 C1125.16321,326.821244 1124.33161,319.336788 1123.5,312.683938 C1121.83679,306.862694 1119.34197,301.873057 1116.01554,298.546632 C1111.85751,295.220207 1106.03627,294.388601 1097.72021,294.388601 C1088.57254,294.388601 1081.91969,296.88342 1077.76166,301.041451 C1073.60363,305.199482 1071.10881,311.020725 1070.2772,318.505181 C1069.4456,325.989637 1068.61399,334.305699 1068.61399,343.453368 L1068.61399,425.782383 C1068.61399,436.593264 1069.4456,445.740933 1071.10881,452.393782 C1072.77202,459.878238 1075.26684,464.867876 1080.25648,468.194301 C1084.41451,471.520725 1091.06736,473.183938 1099.38342,473.183938 C1107.69948,473.183938 1113.52073,471.520725 1118.51036,467.362694 C1122.66839,463.204663 1125.99482,458.215026 1127.65803,450.73057 C1129.32124,443.246114 1130.15285,434.098446 1130.15285,422.455959 L1130.15285,407.487047 L1101.87824,407.487047 L1101.87824,385.865285 L1158.42746,385.865285 L1156.76425,495.637306 L1156.76425,495.637306 Z M21.6217617,641.168394 L21.6217617,577.134715 L30.7694301,577.134715 L30.7694301,604.57772 L47.4015544,604.57772 L47.4015544,577.134715 L56.5492228,577.134715 L56.5492228,641.168394 L47.4015544,641.168394 L47.4015544,611.23057 L30.7694301,611.23057 L30.7694301,641.168394 L21.6217617,641.168394 Z M93.1398964,641.168394 L93.1398964,577.134715 L102.287565,577.134715 L102.287565,641.168394 L93.1398964,641.168394 Z M153.015544,642 C148.857513,642 145.531088,641.168394 143.036269,639.505181 C140.541451,637.841969 138.878238,635.34715 138.046632,632.020725 C137.215026,628.694301 136.38342,624.536269 136.38342,620.378238 L136.38342,598.756477 C136.38342,593.766839 137.215026,590.440415 138.046632,587.11399 C138.878238,583.787565 140.541451,581.292746 143.036269,579.629534 C145.531088,577.966321 148.857513,577.134715 153.84715,577.134715 C158.005181,577.134715 161.331606,577.966321 163.826425,578.797927 C166.321244,580.46114 167.984456,582.124352 168.816062,584.619171 C169.647668,587.11399 170.479275,590.440415 170.479275,595.430052 L170.479275,597.92487 L162.163212,597.92487 L162.163212,596.261658 C162.163212,593.766839 162.163212,591.272021 161.331606,589.608808 C161.331606,587.945596 160.5,586.282383 158.836788,585.450777 C158.005181,584.619171 155.510363,583.787565 153.84715,583.787565 C151.352332,583.787565 149.689119,584.619171 148.025907,585.450777 C147.194301,586.282383 146.362694,587.945596 145.531088,590.440415 C145.531088,592.103627 144.699482,594.598446 144.699482,597.92487 L144.699482,621.209845 C144.699482,624.536269 144.699482,627.031088 145.531088,628.694301 L148.025907,633.683938 C149.689119,634.515544 151.352332,635.34715 153.015544,635.34715 C154.678756,635.34715 157.173575,634.515544 158.005181,633.683938 C159.668394,632.852332 160.5,631.189119 160.5,628.694301 C161.331606,626.199482 161.331606,623.704663 161.331606,620.378238 L161.331606,616.220207 L153.015544,616.220207 L153.015544,609.567358 L169.647668,609.567358 L169.647668,641.168394 L163.826425,641.168394 L162.994819,633.683938 C162.163212,636.178756 160.5,637.841969 158.836788,639.505181 C157.173575,641.168394 156.341969,642 153.015544,642 L153.015544,642 Z M207.069948,641.168394 L207.069948,577.134715 L216.217617,577.134715 L216.217617,604.57772 L232.849741,604.57772 L232.849741,577.134715 L241.165803,577.134715 L241.165803,641.168394 L232.018135,641.168394 L232.018135,611.23057 L215.38601,611.23057 L215.38601,641.168394 L207.069948,641.168394 Z M276.92487,641.168394 L276.92487,577.134715 L286.072539,577.134715 L286.072539,634.515544 L302.704663,634.515544 L302.704663,641.168394 L276.92487,641.168394 Z M330.979275,641.168394 L344.284974,577.134715 L352.601036,577.134715 L365.906736,641.168394 L357.590674,641.168394 L354.264249,625.367876 L340.958549,625.367876 L337.632124,641.168394 L330.979275,641.168394 L330.979275,641.168394 Z M344.284974,618.715026 L355.095855,618.715026 L349.274611,589.608808 L344.284974,618.715026 L344.284974,618.715026 Z M400.002591,641.168394 L400.002591,577.134715 L405.823834,577.134715 L424.119171,619.546632 L424.119171,577.134715 L431.603627,577.134715 L431.603627,641.168394 L425.782383,641.168394 L407.487047,597.92487 L407.487047,641.168394 L400.002591,641.168394 L400.002591,641.168394 Z M468.194301,641.168394 L468.194301,577.134715 L482.331606,577.134715 C487.321244,577.134715 490.647668,577.966321 493.974093,579.629534 C496.468912,581.292746 498.963731,582.955959 499.795337,586.282383 C500.626943,589.608808 501.458549,592.935233 501.458549,597.093264 L501.458549,620.378238 C501.458549,624.536269 500.626943,628.694301 499.795337,632.020725 C498.963731,635.34715 496.468912,637.841969 493.974093,639.505181 C490.647668,640.336788 487.321244,641.168394 482.331606,641.168394 L468.194301,641.168394 Z M476.510363,634.515544 L481.5,634.515544 C484.826425,634.515544 487.321244,633.683938 488.15285,632.852332 C489.816062,631.189119 490.647668,629.525907 490.647668,627.031088 C490.647668,624.536269 491.479275,622.041451 491.479275,617.88342 L491.479275,597.093264 C491.479275,593.766839 491.479275,591.272021 490.647668,588.777202 C490.647668,587.11399 488.984456,585.450777 488.15285,584.619171 C486.489637,583.787565 484.826425,582.955959 481.5,582.955959 L476.510363,582.955959 L476.510363,634.515544 Z M550.523316,642 C547.196891,642 543.870466,641.168394 541.375648,639.505181 C538.880829,637.841969 537.217617,635.34715 535.554404,632.852332 C533.891192,630.357513 533.891192,627.031088 533.059585,622.873057 L541.375648,620.378238 C541.375648,622.873057 542.207254,624.536269 542.207254,627.031088 C542.207254,629.525907 543.870466,631.189119 544.702073,632.020725 C546.365285,633.683938 548.028497,633.683938 549.69171,633.683938 C552.186528,633.683938 553.849741,632.852332 554.681347,632.020725 C555.512953,630.357513 556.34456,628.694301 556.34456,626.199482 C556.34456,622.873057 555.512953,621.209845 554.681347,619.546632 L549.69171,614.556995 L540.544041,605.409326 C538.049223,603.746114 537.217617,601.251295 535.554404,599.588083 C534.722798,597.093264 533.891192,594.598446 533.891192,591.272021 C533.891192,586.282383 535.554404,582.955959 538.049223,580.46114 C540.544041,577.966321 544.702073,576.303109 548.860104,576.303109 C551.354922,576.303109 553.849741,576.303109 555.512953,577.134715 C557.176166,577.966321 558.839378,578.797927 560.502591,580.46114 C562.165803,582.124352 562.997409,583.787565 563.829016,585.450777 C564.660622,587.11399 565.492228,589.608808 565.492228,592.935233 L558.007772,594.598446 C558.007772,592.103627 557.176166,590.440415 557.176166,588.777202 C556.34456,587.11399 555.512953,585.450777 554.681347,584.619171 C553.849741,583.787565 552.186528,582.955959 549.69171,582.955959 C547.196891,582.955959 545.533679,583.787565 544.702073,584.619171 C543.03886,585.450777 543.03886,587.945596 543.03886,589.608808 C543.03886,591.272021 543.03886,592.935233 543.870466,594.598446 C544.702073,596.261658 545.533679,597.093264 547.196891,598.756477 L558.007772,607.904145 C560.502591,610.398964 562.997409,612.893782 564.660622,615.388601 C566.323834,618.715026 567.15544,622.041451 567.15544,626.199482 C567.15544,629.525907 566.323834,632.020725 565.492228,634.515544 C563.829016,637.010363 562.165803,638.673575 559.670984,639.505181 C556.34456,641.168394 553.849741,642 550.523316,642 L550.523316,642 Z M654.474093,641.168394 L640.336788,577.134715 L648.65285,577.134715 L658.632124,624.536269 L668.611399,577.134715 L676.927461,577.134715 L662.790155,641.168394 L654.474093,641.168394 L654.474093,641.168394 Z M710.19171,641.168394 L710.19171,577.134715 L719.339378,577.134715 L719.339378,641.168394 L710.19171,641.168394 Z M770.898964,642 C767.572539,642 764.246114,641.168394 761.751295,639.505181 C759.256477,637.841969 757.593264,635.34715 755.930052,632.852332 C754.266839,630.357513 754.266839,627.031088 753.435233,622.873057 L761.751295,620.378238 C761.751295,622.873057 762.582902,624.536269 762.582902,627.031088 C762.582902,629.525907 764.246114,631.189119 765.07772,632.020725 C766.740933,633.683938 768.404145,633.683938 770.067358,633.683938 C772.562176,633.683938 774.225389,632.852332 775.056995,632.020725 C775.888601,630.357513 776.720207,628.694301 776.720207,626.199482 C776.720207,622.873057 775.888601,621.209845 775.056995,619.546632 L770.067358,614.556995 L759.256477,605.409326 C756.761658,603.746114 755.930052,601.251295 754.266839,599.588083 C753.435233,597.093264 752.603627,594.598446 752.603627,591.272021 C752.603627,586.282383 754.266839,582.955959 756.761658,580.46114 C759.256477,577.966321 763.414508,576.303109 767.572539,576.303109 C770.067358,576.303109 772.562176,576.303109 774.225389,577.134715 C775.888601,577.966321 777.551813,578.797927 779.215026,580.46114 C780.878238,582.124352 781.709845,583.787565 782.541451,585.450777 C783.373057,587.11399 784.204663,589.608808 784.204663,592.935233 L776.720207,594.598446 C776.720207,592.103627 775.888601,590.440415 775.888601,588.777202 C775.056995,587.11399 774.225389,585.450777 773.393782,584.619171 C772.562176,583.787565 770.898964,582.955959 768.404145,582.955959 C765.909326,582.955959 764.246114,583.787565 763.414508,584.619171 C762.582902,585.450777 761.751295,587.945596 761.751295,589.608808 C761.751295,591.272021 761.751295,592.935233 762.582902,594.598446 C763.414508,596.261658 764.246114,597.093264 765.909326,598.756477 L776.720207,607.904145 C779.215026,610.398964 781.709845,612.893782 783.373057,615.388601 C785.036269,617.88342 785.867876,622.041451 785.867876,626.199482 C785.867876,629.525907 785.036269,632.020725 784.204663,634.515544 C782.541451,637.010363 780.878238,638.673575 778.38342,639.505181 C775.888601,641.168394 773.393782,642 770.898964,642 L770.898964,642 Z M825.784974,641.168394 L825.784974,583.787565 L814.974093,583.787565 L814.974093,577.134715 L844.911917,577.134715 L844.911917,583.787565 L834.101036,583.787565 L834.101036,641.168394 L825.784974,641.168394 Z M874.018135,641.168394 L887.323834,577.134715 L895.639896,577.134715 L908.945596,641.168394 L900.629534,641.168394 L897.303109,625.367876 L883.997409,625.367876 L880.670984,641.168394 L874.018135,641.168394 L874.018135,641.168394 Z M887.323834,618.715026 L898.134715,618.715026 L893.145078,589.608808 L887.323834,618.715026 Z M1002.08549,642 C997.927461,642 994.601036,641.168394 992.106218,639.505181 C989.611399,637.841969 987.948187,635.34715 987.11658,632.020725 C986.284974,628.694301 985.453368,624.536269 985.453368,620.378238 L985.453368,598.756477 C985.453368,593.766839 986.284974,590.440415 987.11658,587.11399 C987.948187,583.787565 989.611399,581.292746 992.106218,579.629534 C994.601036,577.966321 997.927461,577.134715 1002.9171,577.134715 C1007.07513,577.134715 1010.40155,577.966321 1012.89637,578.797927 C1015.39119,580.46114 1017.0544,582.124352 1017.88601,584.619171 C1018.71762,587.11399 1019.54922,590.440415 1019.54922,595.430052 L1019.54922,597.92487 L1011.23316,597.92487 L1011.23316,596.261658 C1011.23316,593.766839 1011.23316,591.272021 1010.40155,589.608808 C1010.40155,587.945596 1009.56995,586.282383 1007.90674,585.450777 C1007.07513,584.619171 1004.58031,583.787565 1002.9171,583.787565 C1000.42228,583.787565 998.759067,584.619171 997.095855,585.450777 C996.264249,586.282383 995.432642,587.945596 994.601036,590.440415 C994.601036,592.103627 993.76943,594.598446 993.76943,597.92487 L993.76943,621.209845 C993.76943,624.536269 993.76943,627.031088 994.601036,628.694301 L997.095855,633.683938 C997.927461,635.34715 1000.42228,635.34715 1002.08549,635.34715 C1004.58031,635.34715 1006.24352,634.515544 1007.07513,633.683938 C1008.73834,632.852332 1009.56995,631.189119 1009.56995,628.694301 C1010.40155,626.199482 1010.40155,623.704663 1010.40155,620.378238 L1010.40155,616.220207 L1002.08549,616.220207 L1002.08549,609.567358 L1018.71762,609.567358 L1018.71762,641.168394 L1014.55959,641.168394 L1013.72798,633.683938 C1012.89637,636.178756 1011.23316,637.841969 1009.56995,639.505181 C1007.90674,641.168394 1005.41192,642 1002.08549,642 L1002.08549,642 Z M1055.30829,641.168394 L1055.30829,577.134715 L1068.61399,577.134715 C1072.77202,577.134715 1076.09845,577.966321 1079.42487,578.797927 C1081.91969,579.629534 1084.41451,582.124352 1085.24611,584.619171 C1086.90933,587.11399 1086.90933,590.440415 1086.90933,594.598446 C1086.90933,597.093264 1086.90933,599.588083 1086.07772,601.251295 L1083.5829,606.240933 C1082.7513,607.904145 1081.08808,608.735751 1078.59326,609.567358 L1087.74093,642 L1079.42487,642 L1071.10881,612.062176 L1064.45596,612.062176 L1064.45596,642 L1055.30829,642 L1055.30829,641.168394 L1055.30829,641.168394 Z M1064.45596,604.57772 L1067.78238,604.57772 C1070.2772,604.57772 1072.77202,604.57772 1073.60363,603.746114 C1075.26684,602.914508 1076.09845,602.082902 1076.93005,600.419689 C1077.76166,598.756477 1077.76166,597.093264 1077.76166,593.766839 C1077.76166,590.440415 1076.93005,587.11399 1076.09845,585.450777 C1074.43523,583.787565 1071.94041,582.955959 1067.78238,582.955959 L1064.45596,582.955959 L1064.45596,604.57772 Z M1139.30052,642 C1135.14249,642 1131.81606,641.168394 1129.32124,639.505181 C1126.82642,637.841969 1125.16321,635.34715 1123.5,632.020725 C1122.66839,628.694301 1121.83679,625.367876 1121.83679,621.209845 L1121.83679,597.093264 C1121.83679,592.935233 1122.66839,589.608808 1123.5,586.282383 C1124.33161,582.955959 1126.82642,581.292746 1129.32124,579.629534 C1131.81606,577.966321 1135.14249,577.134715 1139.30052,577.134715 C1143.45855,577.134715 1146.78497,577.966321 1149.27979,579.629534 C1151.77461,581.292746 1153.43782,583.787565 1155.10104,586.282383 C1155.93264,589.608808 1156.76425,592.935233 1156.76425,597.093264 L1156.76425,621.209845 C1156.76425,625.367876 1155.93264,628.694301 1155.10104,632.020725 C1154.26943,635.34715 1151.77461,637.841969 1149.27979,639.505181 C1146.78497,641.168394 1143.45855,642 1139.30052,642 Z M1139.30052,635.34715 C1141.79534,635.34715 1143.45855,634.515544 1144.29016,633.683938 C1145.12176,632.852332 1145.95337,631.189119 1146.78497,629.525907 C1147.61658,627.862694 1147.61658,625.367876 1147.61658,623.704663 L1147.61658,595.430052 C1147.61658,592.935233 1147.61658,591.272021 1146.78497,589.608808 C1146.78497,587.945596 1145.12176,586.282383 1144.29016,585.450777 C1143.45855,584.619171 1140.96373,583.787565 1139.30052,583.787565 C1136.8057,583.787565 1135.14249,584.619171 1133.47927,585.450777 C1131.81606,586.282383 1131.81606,587.945596 1130.98446,589.608808 C1130.98446,591.272021 1130.15285,593.766839 1130.15285,595.430052 L1130.15285,623.704663 C1130.15285,626.199482 1130.15285,627.862694 1130.98446,629.525907 C1130.98446,631.189119 1132.64767,632.852332 1133.47927,633.683938 C1135.14249,634.515544 1136.8057,635.34715 1139.30052,635.34715 Z M1208.32383,642 C1203.3342,642 1200.00777,641.168394 1197.51295,639.505181 C1195.01813,637.841969 1193.35492,635.34715 1192.52332,632.020725 C1191.69171,628.694301 1190.8601,624.536269 1190.8601,620.378238 L1190.8601,577.966321 L1199.17617,577.966321 L1199.17617,620.378238 C1199.17617,622.873057 1199.17617,625.367876 1200.00777,627.862694 C1200.00777,630.357513 1200.83938,632.020725 1202.50259,632.852332 C1204.1658,634.515544 1205.82902,634.515544 1208.32383,634.515544 C1210.81865,634.515544 1212.48187,633.683938 1214.14508,632.852332 L1216.6399,627.862694 C1216.6399,625.367876 1217.4715,622.873057 1217.4715,620.378238 L1217.4715,577.966321 L1225.78756,577.966321 L1225.78756,620.378238 C1225.78756,624.536269 1224.95596,628.694301 1224.12435,632.020725 C1223.29275,635.34715 1221.62953,637.841969 1219.13472,639.505181 C1216.6399,641.168394 1212.48187,642 1208.32383,642 Z M1260.71503,641.168394 L1260.71503,577.134715 L1276.51554,577.134715 C1280.67358,577.134715 1283.16839,577.966321 1285.66321,579.629534 C1288.15803,581.292746 1289.82124,582.955959 1290.65285,585.450777 C1291.48446,587.945596 1292.31606,591.272021 1292.31606,594.598446 C1292.31606,597.92487 1291.48446,601.251295 1290.65285,603.746114 C1289.82124,606.240933 1287.32642,607.904145 1285.66321,609.567358 C1283.16839,611.23057 1280.67358,611.23057 1277.34715,611.23057 L1270.6943,611.23057 L1270.6943,641.168394 L1260.71503,641.168394 L1260.71503,641.168394 Z M1269.86269,605.409326 L1274.02073,605.409326 C1276.51554,605.409326 1279.01036,605.409326 1279.84197,604.57772 C1281.50518,603.746114 1282.33679,602.914508 1283.16839,601.251295 C1284,599.588083 1284,597.92487 1284,595.430052 C1284,592.103627 1284,590.440415 1283.16839,588.777202 C1282.33679,587.11399 1281.50518,586.282383 1280.67358,585.450777 C1279.01036,584.619171 1277.34715,584.619171 1274.02073,584.619171 L1269.86269,584.619171 L1269.86269,605.409326 L1269.86269,605.409326 Z" id="Shape" fill-rule="nonzero"></path>
        </g>
    </g>
</svg>