<?xml version="1.0" encoding="UTF-8"?>
<svg width="500px" height="286px" viewBox="0 0 500 286" version="1.1" xmlns="http://www.w3.org/2000/svg" xmlns:xlink="http://www.w3.org/1999/xlink">
    <title>Kolbe</title>
    <g id="Kolbe" stroke="none" fill="none" fill-rule="evenodd" stroke-width="1">
        <g id="Kolbe_Logo_Horizontal_WHT" transform="translate(34, 87)" fill="#FFFFFF">
            <path d="M162.72,87 C161.04155,84.6956723 158.360806,83.3348508 155.51,83.34 C153.141887,83.3350133 150.874068,84.2955862 149.23,86 C148.441037,86.8357098 147.822808,87.817403 147.41,88.89 C146.517078,91.2310799 146.517078,93.8189201 147.41,96.16 C147.836127,97.217958 148.464527,98.1826374 149.26,99 C150.031665,99.8417742 150.963073,100.521634 152,101 C153.081028,101.473073 154.250049,101.711649 155.43,101.7 C158.247924,101.643191 160.90017,100.357253 162.69,98.18 L162.69,108.4 L161.83,108.71 C160.657239,109.134594 159.453732,109.468901 158.23,109.71 C157.139994,109.927182 156.031429,110.037704 154.92,110.040124 C152.713777,110.048625 150.52907,109.606239 148.5,108.74 C146.470105,107.893044 144.628012,106.65252 143.08,105.09 C141.490428,103.47457 140.21838,101.574979 139.33,99.49 C137.456642,94.9766739 137.456642,89.9033261 139.33,85.39 C140.214882,83.3321839 141.484241,81.4620853 143.07,79.88 C144.632169,78.3401016 146.475559,77.11457 148.5,76.27 C150.560545,75.4182695 152.770402,74.9864974 155,74.9996928 C156.27833,74.9985191 157.552849,75.1393871 158.8,75.42 C160.147519,75.7303815 161.463201,76.1655944 162.73,76.72 L162.72,87 Z" id="Path" fill-rule="nonzero"></path>
            <path d="M212.81,92.52 C212.788003,90.1542518 213.240237,87.8080756 214.14,85.62 C214.994095,83.5399866 216.247744,81.647623 217.83,80.05 C219.440733,78.4386442 221.363267,77.1728341 223.48,76.33 C228.128346,74.5291734 233.281654,74.5291734 237.93,76.33 C240.063143,77.1695953 242.00266,78.4353852 243.63,80.05 C245.22167,81.6440158 246.482508,83.5369718 247.34,85.62 C249.113083,90.0456829 249.113083,94.9843171 247.34,99.41 C245.611378,103.669245 242.209276,107.031578 237.93,108.71 C233.278979,110.496462 228.131021,110.496462 223.48,108.71 C221.367112,107.859807 219.445973,106.594916 217.83,104.99 C216.247464,103.388772 214.993867,101.49309 214.14,99.41 C213.241289,97.2251095 212.78907,94.882412 212.81,92.52 L212.81,92.52 Z M221.61,92.52 C221.594929,93.7776052 221.843608,95.0244079 222.34,96.18 C222.816468,97.264897 223.495231,98.249104 224.34,99.08 C225.169138,99.906764 226.155102,100.55954 227.24,101 C229.485311,101.90639 231.994689,101.90639 234.24,101 C237.711281,99.6057579 239.98597,96.240816 239.98597,92.5 C239.98597,88.759184 237.711281,85.3942421 234.24,84 C231.997391,83.0798046 229.482609,83.0798046 227.24,84 C226.155692,84.4370145 225.169701,85.0864086 224.34,85.91 C223.495124,86.7446414 222.816435,87.7321348 222.34,88.82 C221.838092,89.9879378 221.589297,91.2489524 221.61,92.52 Z" id="Shape" fill-rule="nonzero"></path>
            <path d="M325.39,109.13 L314.91,109.13 L306.91,96.35 L306.91,109.13 L298.49,109.13 L298.49,75.91 L311.59,75.91 C313.203888,75.8759752 314.809393,76.1509136 316.32,76.72 C317.570088,77.2304763 318.693102,78.0087355 319.61,79 C320.494399,79.9370765 321.17534,81.0470099 321.61,82.26 C322.069993,83.5427331 322.296898,84.8973876 322.28,86.26 C322.383456,88.450478 321.757438,90.6134067 320.5,92.41 C319.181576,94.0647501 317.31677,95.1956878 315.24,95.6 L325.39,109.13 Z M306.87,90.76 L308.46,90.76 C309.819359,90.8456433 311.168105,90.472361 312.29,89.7 C313.137673,88.9163663 313.619662,87.8143962 313.619662,86.66 C313.619662,85.5056038 313.137673,84.4036337 312.29,83.62 C311.170807,82.8418632 309.82001,82.4680134 308.46,82.56 L306.87,82.56 L306.87,90.76 Z" id="Shape" fill-rule="nonzero"></path>
            <path d="M382.64,109.13 L374.22,109.13 L374.22,75.91 L387.63,75.91 C391.26,75.91 394.05,76.91 395.98,78.82 C397.91,80.73 398.88,83.49 398.88,87.01 C398.88,90.53 397.88,93.27 395.98,95.21 C394.08,97.15 391.26,98.11 387.63,98.11 L382.63,98.11 L382.64,109.13 Z M382.64,91.13 L385.44,91.13 C388.526667,91.13 390.07,89.75 390.07,86.99 C390.07,84.23 388.526667,82.85 385.44,82.85 L382.64,82.85 L382.64,91.13 Z" id="Shape" fill-rule="nonzero"></path>
            <path d="M344.23,31.7 C342.893576,31.0774583 341.420606,30.8055783 339.95,30.91 L338.22,30.91 L338.22,37.55 L340,37.55 C341.470878,37.6593583 342.945085,37.38725 344.28,36.76 C345.145872,36.2211165 345.642406,35.2472941 345.57,34.23 C345.632146,33.2023191 345.115047,32.2260052 344.23,31.7 L344.23,31.7 Z" id="Path" fill-rule="nonzero"></path>
            <path d="M343.38,21.83 C343.38,19.83 342.15,18.83 339.67,18.83 L338.22,18.83 L338.22,24.89 L339.67,24.89 C342.15,24.86 343.38,23.85 343.38,21.83 Z" id="Path" fill-rule="nonzero"></path>
            <path d="M113.83,0 L113.83,55.34 L432,55.34 L432,0 L113.83,0 Z M155.92,43.85 L145.64,30.29 L145.64,43.85 L137.74,43.85 L137.74,12.58 L145.64,12.58 L145.64,25.48 L155.28,12.58 L165,12.58 L153,27.39 L166.19,43.85 L155.92,43.85 Z M234.45,34.71 C233.658416,36.6827135 232.486115,38.4802416 231,40 C229.474131,41.5171727 227.657913,42.7109787 225.66,43.51 C221.289126,45.189551 216.450874,45.189551 212.08,43.51 C210.094817,42.7091786 208.292035,41.515261 206.78,40 C205.294366,38.4949703 204.115796,36.7152278 203.31,34.76 C201.637681,30.5880119 201.637681,25.9319881 203.31,21.76 C204.11329,19.8004874 205.292085,18.017008 206.78,16.51 C208.270602,15.0061189 210.044885,13.8130663 212,13 C216.370874,11.320449 221.209126,11.320449 225.58,13 C229.592665,14.596897 232.781217,17.7601716 234.41,21.76 C236.082319,25.9319881 236.082319,30.5880119 234.41,34.76 L234.45,34.71 Z M291.76,43.85 L274.38,43.85 L274.38,12.58 L282.28,12.58 L282.28,37 L291.76,37 L291.76,43.85 Z M352.76,38.67 C352.284699,39.7695366 351.566775,40.7472803 350.66,41.53 C349.699491,42.3316743 348.582389,42.9242833 347.38,43.27 C345.962794,43.6752401 344.493861,43.8706487 343.02,43.85 L330.32,43.85 L330.32,12.58 L342.09,12.58 C344.89,12.58 347.013333,13.27 348.46,14.65 C350.0027,16.2515734 350.794801,18.4316678 350.64,20.65 C350.689109,22.0038731 350.407662,23.3493291 349.82,24.57 C349.217496,25.6468303 348.350122,26.5520656 347.3,27.2 C348.308109,27.3740504 349.280955,27.7118443 350.18,28.2 C350.935222,28.6167537 351.593123,29.189434 352.11,29.88 C352.612123,30.5443495 352.975959,31.3026245 353.18,32.11 C353.40461,32.978657 353.515537,33.8727909 353.51,34.77 C353.533984,36.1080153 353.278542,37.4363166 352.76,38.67 L352.76,38.67 Z M410.05,19.47 L400.65,19.47 L400.65,24.69 L409.52,24.69 L409.52,31.58 L400.65,31.58 L400.65,37 L410.05,37 L410.05,43.88 L392.75,43.88 L392.75,12.58 L410.05,12.58 L410.05,19.47 Z" id="Shape" fill-rule="nonzero"></path>
            <path d="M224.87,22 C224.082198,21.2252916 223.151705,20.6106232 222.13,20.19 C220.019591,19.3370516 217.660409,19.3370516 215.55,20.19 C214.533115,20.6085691 213.6088,21.2236464 212.83,22 C210.317963,24.5511996 209.595136,28.3667787 211,31.66 C211.434989,32.6836613 212.063099,33.6139438 212.85,34.4 C215.319293,36.790124 218.967229,37.4961761 222.15,36.2 C226.5641,34.3018341 228.625341,29.2022707 226.77,24.77 C226.325125,23.7306288 225.67945,22.7893016 224.87,22 L224.87,22 Z" id="Path" fill-rule="nonzero"></path>
            <polygon id="Path" fill-rule="nonzero" points="93.93 103.52 101.25 103.51 8.47 37.07 8.48 42.4"></polygon>
            <polygon id="Path" fill-rule="nonzero" points="78.1 103.52 85.45 103.5 8.5 48.37 8.49 53.64"></polygon>
            <polygon id="Path" fill-rule="nonzero" points="62.13 103.45 69.48 103.47 8.53 59.77 8.53 64.99"></polygon>
            <polygon id="Path" fill-rule="nonzero" points="45.68 103.52 53.04 103.52 8.44 71.63 8.44 76.9"></polygon>
            <path d="M0,0 L0,111 L110.13,111 L110.13,0 L0,0 Z M108,108.59 L2.1,108.59 L2.1,2.35 L53.56,2.35 L13.29,32.18 L16.91,34.85 L60.91,2.35 L68,2.35 L20.62,37.46 L24.27,40.14 L75.33,2.35 L84.13,2.35 L28.75,43.22 L32.46,45.9 L91.46,2.35 L98.76,2.35 L36.32,48.58 L40.1,51.2 L106.17,2.35 L108,2.35 L108,108.59 Z" id="Shape" fill-rule="nonzero"></path>
            <path d="M112.32,107.84 C112.299675,106.945913 112.822609,106.128496 113.642873,105.772168 C114.463138,105.41584 115.41748,105.59152 116.057084,106.216588 C116.696689,106.841656 116.894258,107.791707 116.556879,108.619946 C116.219499,109.448184 115.414318,109.989769 114.52,109.99 C113.941964,110.000712 113.383759,109.779253 112.970283,109.375175 C112.556808,108.971097 112.322577,108.41813 112.32,107.84 M116.19,107.84 C116.206275,107.15619 115.806348,106.530785 115.178796,106.258681 C114.551245,105.986578 113.821379,106.12211 113.333351,106.60137 C112.845324,107.08063 112.696585,107.80792 112.957269,108.4403 C113.217953,109.072681 113.836007,109.483878 114.52,109.48 C114.962555,109.496587 115.3924,109.330145 115.708378,109.019843 C116.024357,108.70954 116.198563,108.282783 116.19,107.84 M115.57,108.93 L115,108.93 L114.48,107.99 L114.13,107.99 L114.13,108.93 L113.62,108.93 L113.62,106.7 L114.73,106.7 C115.26,106.7 115.62,106.79 115.62,107.38 C115.62,107.79 115.4,107.96 115,107.99 L115.57,108.93 Z M114.76,107.65 C115.02,107.65 115.16,107.6 115.16,107.32 C115.16,107.04 114.87,107.09 114.64,107.09 L114.15,107.09 L114.15,107.65 L114.76,107.65 Z" id="Shape" fill-rule="nonzero"></path>
        </g>
    </g>
</svg>