<?xml version="1.0" encoding="UTF-8"?>
<svg width="2100px" height="1200px" viewBox="0 0 2100 1200" version="1.1" xmlns="http://www.w3.org/2000/svg" xmlns:xlink="http://www.w3.org/1999/xlink">
    <title>Longpath</title>
    <defs>
        <path d="M0,0 L2100,0 L2100,1200 L0,1200 L0,0 Z" id="path-1"></path>
    </defs>
    <g id="Longpath" stroke="none" fill="none" xlink:href="#path-1" fill-rule="evenodd" stroke-width="1">
        <g id="svg2" transform="translate(326.8827, 494.564)" fill="#000000">
            <g id="g8" transform="translate(701.7373, 105) scale(-1, 1) rotate(-180) translate(-701.7373, -105)" fill-rule="nonzero">
                <g id="g10">
                    <polyline id="path12" points="32.5657825 206.531755 0 206.531755 0 3.46824474 127.285216 3.46824474 127.285216 35.2330128 32.5657825 35.2330128 32.5657825 206.531755"></polyline>
                    <path d="M230.284265,32.5647258 C187.438444,32.5647258 158.649477,61.6738878 158.649477,104.999472 C158.649477,148.326112 187.438444,177.435274 230.284265,177.435274 C273.289654,177.435274 302.185353,148.326112 302.185353,104.999472 C302.185353,61.6738878 273.289654,32.5647258 230.284265,32.5647258 L230.284265,32.5647258 Z M230.284265,210 C168.77523,210 125.817394,166.822361 125.817394,104.999472 C125.817394,43.1765825 168.77523,0 230.284265,0 C291.792243,0 334.749023,43.1765825 334.749023,104.999472 C334.749023,166.822361 291.792243,210 230.284265,210" id="path14"></path>
                    <polyline id="path16" points="493.230477 64.9952446 385.929409 206.531755 358.389517 206.531755 358.389517 3.46824474 390.686886 3.46824474 390.686886 145.236183 497.984783 3.46824474 525.528902 3.46824474 525.528902 206.531755 493.230477 206.531755 493.230477 64.9952446"></polyline>
                    <path d="M806.680757,174.766987 L841.22794,174.766987 C881.280778,174.766987 885.913558,153.071964 885.913558,136.751559 C885.913558,120.43221 881.280778,98.7361302 841.22794,98.7361302 L806.680757,98.7361302 L806.680757,174.766987 Z M841.494241,206.531755 L774.114974,206.531755 L774.114974,3.46824474 L806.680757,3.46824474 L806.680757,67.5050195 L841.494241,67.5050195 C888.979182,67.5050195 918.480397,94.1413928 918.480397,137.017859 C918.480397,179.896439 888.979182,206.531755 841.494241,206.531755" id="path18"></path>
                    <path d="M963.540104,81.6601501 L993.58343,154.846243 L1023.8064,81.6601501 L963.540104,81.6601501 Z M980.374089,206.531755 L896.251717,3.46824474 L931.256473,3.46824474 L950.468139,50.4290394 L1036.67759,50.4290394 L1056.15344,3.46824474 L1090.86759,3.46824474 L1006.73993,206.531755 L980.374089,206.531755" id="path20"></path>
                    <polyline id="path22" points="1061.42661 174.766987 1125.72968 174.766987 1125.72968 3.46824474 1158.03445 3.46824474 1158.03445 174.766987 1222.60171 174.766987 1222.60171 206.531755 1061.42661 206.531755 1061.42661 174.766987"></polyline>
                    <polyline id="path24" points="1370.90563 206.531755 1370.90563 122.749657 1277.79563 122.749657 1277.79563 206.531755 1245.23724 206.531755 1245.23724 3.46824474 1277.79563 3.46824474 1277.79563 90.9848885 1370.90563 90.9848885 1370.90563 3.46824474 1403.47459 3.46824474 1403.47459 206.531755 1370.90563 206.531755"></polyline>
                    <path d="M670.892951,117.94674 L642.968403,117.94674 L642.968403,86.1819719 L718.524781,86.1819719 C712.151538,53.3181866 686.582479,32.5647258 651.285005,32.5647258 C609.395541,32.5647258 581.251189,61.6738878 581.251189,104.999472 C581.251189,148.326112 609.395541,177.435274 651.285005,177.435274 C679.455775,177.435274 701.728839,164.118144 712.992708,140.795731 L748.166543,140.795731 L747.334883,143.312903 C733.928987,183.823312 695.912501,210 650.48399,210 C591.342069,210 548.418049,165.840643 548.418049,104.999472 C548.418049,44.1583008 591.567156,0 651.016591,0 C679.626968,0 704.546127,9.88375779 723.078305,28.5839586 C742.891261,48.5755046 753.641551,77.444785 753.349889,109.876361 L753.275917,117.94674 L670.892951,117.94674" id="path26"></path>
                </g>
            </g>
        </g>
    </g>
</svg>