<?xml version="1.0" encoding="UTF-8"?>
<svg width="529px" height="115px" viewBox="0 0 529 115" version="1.1" xmlns="http://www.w3.org/2000/svg" xmlns:xlink="http://www.w3.org/1999/xlink">
    <title>Group</title>
    <defs>
        <rect id="path-1" x="0" y="0" width="152" height="114"></rect>
    </defs>
    <g id="Page-1" stroke="none" stroke-width="1" fill="none" fill-rule="evenodd">
        <g id="Group">
            <g>
                <g id="Oval">
                    <mask id="mask-2" fill="white">
                        <use xlink:href="#path-1"></use>
                    </mask>
                    <g id="Mask"></g>
                    <circle stroke="#F5951E" stroke-width="3" mask="url(#mask-2)" cx="76" cy="76" r="74.5"></circle>
                </g>
                <g transform="translate(7, 34)" id="Triangle">
                    <path d="M47.5,2.93807275 L92.3267916,78.4358269 L4.61793998,76.344279 L4.39297988,75.5393698 L47.5,2.93807275 Z" stroke="#F5951E" stroke-width="3"></path>
                    <path d="M90.5,2.93807275 L133.417538,75.2202421 L133.701509,76.1252799 L45.677017,78.4294125 L90.5,2.93807275 Z" stroke="#F5951E" stroke-width="3"></path>
                    <polygon fill="#FECA81" points="90.4977929 5.86743164 134.847684 80.0474316 46.39 80.0474316"></polygon>
                    <polygon fill="#FECA81" points="47.5030653 5.86743164 91.85 80.0424868 3.45 80.0424868"></polygon>
                    <polygon fill="#F5951E" points="69 36.359375 95 80 43 80"></polygon>
                </g>
            </g>
            <g id="Meritage" transform="translate(164, 25)" fill="#23272F" fill-rule="nonzero">
                <path d="M3.675,77.275 C3.525,78.325 4.05,79 5.1,79 L9.975,79 C10.575,79 11.25,78.475 11.325,77.95 L16.725,44.425 C16.8,44.425 16.95,44.425 17.025,44.425 L30.6,78.925 C30.75,79.375 31.275,79.75 31.875,79.75 L33.225,79.75 C33.9,79.75 34.35,79.375 34.5,78.925 L48,44.425 C48,44.425 48.15,44.425 48.225,44.425 L53.775,77.95 C53.925,78.475 54.525,79 55.2,79 L60.075,79 C61.125,79 61.65,78.325 61.425,77.275 L52.2,26.875 C52.05,26.275 51.45,25.75 50.85,25.75 L49.65,25.75 C49.125,25.75 48.525,26.125 48.375,26.575 L32.775,64.9 L32.475,64.9 L16.8,26.575 C16.65,26.125 15.975,25.75 15.525,25.75 L14.325,25.75 C13.725,25.75 13.125,26.275 12.975,26.875 L3.675,77.275 Z" id="Path"></path>
                <path d="M73.2833333,77.575 C73.2833333,78.325 73.8833333,79 74.7083333,79 L104.708333,79 C105.533333,79 106.133333,78.325 106.133333,77.575 L106.133333,73.45 C106.133333,72.7 105.533333,72.025 104.708333,72.025 L81.0083333,72.025 L81.0083333,55.9 L101.033333,55.9 C101.783333,55.9 102.458333,55.3 102.458333,54.475 L102.458333,50.275 C102.458333,49.525 101.783333,48.85 101.033333,48.85 L81.0083333,48.85 L81.0083333,33.55 L104.708333,33.55 C105.533333,33.55 106.133333,32.875 106.133333,32.125 L106.133333,27.925 C106.133333,27.175 105.533333,26.5 104.708333,26.5 L74.7083333,26.5 C73.8833333,26.5 73.2833333,27.175 73.2833333,27.925 L73.2833333,77.575 Z" id="Path"></path>
                <path d="M118.291667,77.575 C118.291667,78.325 118.891667,79 119.716667,79 L124.591667,79 C125.341667,79 126.016667,78.325 126.016667,77.575 L126.016667,58.45 L137.341667,58.45 L147.316667,78.325 C147.466667,78.625 147.916667,79 148.516667,79 L154.366667,79 C155.641667,79 156.166667,77.8 155.641667,76.825 L145.366667,57.775 C151.891667,55.15 156.466667,49.45 156.466667,42.55 C156.466667,33.625 149.116667,26.5 140.116667,26.5 L119.716667,26.5 C118.891667,26.5 118.291667,27.175 118.291667,27.925 L118.291667,77.575 Z M126.166667,52 L126.166667,33.775 L139.516667,33.775 C144.391667,33.775 148.666667,37.825 148.666667,42.7 C148.666667,47.875 144.391667,52 139.516667,52 L126.166667,52 Z" id="Shape"></path>
                <path d="M169,77.575 C169,78.325 169.675,79 170.425,79 L175.375,79 C176.125,79 176.8,78.325 176.8,77.575 L176.8,27.925 C176.8,27.175 176.125,26.5 175.375,26.5 L170.425,26.5 C169.675,26.5 169,27.175 169,27.925 L169,77.575 Z" id="Path"></path>
                <path d="M199.383333,77.575 C199.383333,78.325 200.058333,79 200.808333,79 L205.758333,79 C206.508333,79 207.183333,78.325 207.183333,77.575 L207.183333,33.55 L219.408333,33.55 C220.233333,33.55 220.833333,32.875 220.833333,32.125 L220.833333,27.925 C220.833333,27.175 220.233333,26.5 219.408333,26.5 L187.158333,26.5 C186.333333,26.5 185.733333,27.175 185.733333,27.925 L185.733333,32.125 C185.733333,32.875 186.333333,33.55 187.158333,33.55 L199.383333,33.55 L199.383333,77.575 Z" id="Path"></path>
                <path d="M221.141667,79 L225.866667,79 C226.766667,79 227.366667,78.4 227.591667,77.875 C229.091667,74.425 230.666667,71.05 232.166667,67.6 L256.691667,67.6 L261.341667,77.875 C261.641667,78.55 262.166667,79 263.066667,79 L267.791667,79 C268.916667,79 269.516667,78.025 269.066667,77.05 L246.191667,26.575 C245.966667,26.125 245.291667,25.75 244.916667,25.75 L244.166667,25.75 C243.791667,25.75 243.116667,26.125 242.891667,26.575 L219.866667,77.05 C219.416667,78.025 220.016667,79 221.141667,79 Z M235.091667,61.15 L244.241667,40.6 L244.616667,40.6 L253.841667,61.15 L235.091667,61.15 Z" id="Shape"></path>
                <path d="M273.275,52.825 C273.275,67.825 285.35,79.75 300.275,79.75 C311.15,79.75 318.875,74.8 318.875,74.8 C319.175,74.575 319.475,73.975 319.475,73.6 C319.475,67.6 319.4,61.45 319.4,55.45 C319.4,54.7 318.8,54.025 318.05,54.025 L304.4,54.025 C303.575,54.025 302.975,54.625 302.975,55.45 L302.975,59.8 C302.975,60.55 303.575,61.15 304.4,61.15 L311.75,61.15 L311.75,69.55 C311,69.85 306.725,72.1 300.5,72.1 C289.85,72.1 281.675,63.1 281.675,52.675 C281.675,42.175 289.85,33.175 300.5,33.175 C305.075,33.175 309.725,35.2 313.25,38.275 C314,38.95 314.6,39.025 315.2,38.35 C316.325,37.15 317.45,36.025 318.575,34.825 C319.175,34.225 319.1,33.325 318.5,32.725 C313.4,28.375 307.475,25.75 300.275,25.75 C285.35,25.75 273.275,37.825 273.275,52.825 Z" id="Path"></path>
                <path d="M332.083333,77.575 C332.083333,78.325 332.683333,79 333.508333,79 L363.508333,79 C364.333333,79 364.933333,78.325 364.933333,77.575 L364.933333,73.45 C364.933333,72.7 364.333333,72.025 363.508333,72.025 L339.808333,72.025 L339.808333,55.9 L359.833333,55.9 C360.583333,55.9 361.258333,55.3 361.258333,54.475 L361.258333,50.275 C361.258333,49.525 360.583333,48.85 359.833333,48.85 L339.808333,48.85 L339.808333,33.55 L363.508333,33.55 C364.333333,33.55 364.933333,32.875 364.933333,32.125 L364.933333,27.925 C364.933333,27.175 364.333333,26.5 363.508333,26.5 L333.508333,26.5 C332.683333,26.5 332.083333,27.175 332.083333,27.925 L332.083333,77.575 Z" id="Path"></path>
            </g>
        </g>
    </g>
</svg>