<?xml version="1.0" encoding="UTF-8"?>
<svg width="500px" height="286px" viewBox="0 0 500 286" version="1.1" xmlns="http://www.w3.org/2000/svg" xmlns:xlink="http://www.w3.org/1999/xlink">
    <title>Meritage Accounting</title>
    <defs>
        <rect id="path-1" x="0" y="0" width="152" height="114"></rect>
    </defs>
    <g id="Meritage-Accounting" stroke="none" fill="none" fill-rule="evenodd" stroke-width="1">
        <g id="Group" transform="translate(69, 32)">
            <g transform="translate(-167, 78)">
                <g transform="translate(272, -78)">
                    <g id="Oval">
                        <mask id="mask-2" fill="white">
                            <use xlink:href="#path-1"></use>
                        </mask>
                        <g id="Mask"></g>
                        <circle stroke="#FFFFFF" stroke-width="3" mask="url(#mask-2)" cx="76" cy="76" r="74.5"></circle>
                    </g>
                    <g transform="translate(7, 34)" id="Triangle">
                        <path d="M47.5,2.93807275 L92.3267916,78.4358269 L4.61793998,76.344279 L4.39297988,75.5393698 L47.5,2.93807275 Z" stroke="#FFFFFF" stroke-width="3"></path>
                        <path d="M90.5,2.93807275 L133.417538,75.2202421 L133.701509,76.1252799 L45.677017,78.4294125 L90.5,2.93807275 Z" stroke="#FFFFFF" stroke-width="3"></path>
                        <polygon fill="#484848" points="90.4977929 5.86743164 134.847684 80.0474316 46.39 80.0474316"></polygon>
                        <polygon fill="#484848" points="47.5030653 5.86743164 91.85 80.0424868 3.45 80.0424868"></polygon>
                        <polygon fill="#FFFFFF" points="69 36.359375 95 80 43 80"></polygon>
                    </g>
                </g>
                <g id="Meritage" transform="translate(164, 25)" fill="#FFFFFF" fill-rule="nonzero">
                    <path d="M3.675,77.275 C3.525,78.325 4.05,79 5.1,79 L9.975,79 C10.575,79 11.25,78.475 11.325,77.95 L16.725,44.425 C16.8,44.425 16.95,44.425 17.025,44.425 L30.6,78.925 C30.75,79.375 31.275,79.75 31.875,79.75 L33.225,79.75 C33.9,79.75 34.35,79.375 34.5,78.925 L48,44.425 C48,44.425 48.15,44.425 48.225,44.425 L53.775,77.95 C53.925,78.475 54.525,79 55.2,79 L60.075,79 C61.125,79 61.65,78.325 61.425,77.275 L52.2,26.875 C52.05,26.275 51.45,25.75 50.85,25.75 L49.65,25.75 C49.125,25.75 48.525,26.125 48.375,26.575 L32.775,64.9 L32.475,64.9 L16.8,26.575 C16.65,26.125 15.975,25.75 15.525,25.75 L14.325,25.75 C13.725,25.75 13.125,26.275 12.975,26.875 L3.675,77.275 Z" id="Path"></path>
                    <path d="M73.2833333,77.575 C73.2833333,78.325 73.8833333,79 74.7083333,79 L104.708333,79 C105.533333,79 106.133333,78.325 106.133333,77.575 L106.133333,73.45 C106.133333,72.7 105.533333,72.025 104.708333,72.025 L81.0083333,72.025 L81.0083333,55.9 L101.033333,55.9 C101.783333,55.9 102.458333,55.3 102.458333,54.475 L102.458333,50.275 C102.458333,49.525 101.783333,48.85 101.033333,48.85 L81.0083333,48.85 L81.0083333,33.55 L104.708333,33.55 C105.533333,33.55 106.133333,32.875 106.133333,32.125 L106.133333,27.925 C106.133333,27.175 105.533333,26.5 104.708333,26.5 L74.7083333,26.5 C73.8833333,26.5 73.2833333,27.175 73.2833333,27.925 L73.2833333,77.575 Z" id="Path"></path>
                    <path d="M118.291667,77.575 C118.291667,78.325 118.891667,79 119.716667,79 L124.591667,79 C125.341667,79 126.016667,78.325 126.016667,77.575 L126.016667,58.45 L137.341667,58.45 L147.316667,78.325 C147.466667,78.625 147.916667,79 148.516667,79 L154.366667,79 C155.641667,79 156.166667,77.8 155.641667,76.825 L145.366667,57.775 C151.891667,55.15 156.466667,49.45 156.466667,42.55 C156.466667,33.625 149.116667,26.5 140.116667,26.5 L119.716667,26.5 C118.891667,26.5 118.291667,27.175 118.291667,27.925 L118.291667,77.575 Z M126.166667,52 L126.166667,33.775 L139.516667,33.775 C144.391667,33.775 148.666667,37.825 148.666667,42.7 C148.666667,47.875 144.391667,52 139.516667,52 L126.166667,52 Z" id="Shape"></path>
                    <path d="M169,77.575 C169,78.325 169.675,79 170.425,79 L175.375,79 C176.125,79 176.8,78.325 176.8,77.575 L176.8,27.925 C176.8,27.175 176.125,26.5 175.375,26.5 L170.425,26.5 C169.675,26.5 169,27.175 169,27.925 L169,77.575 Z" id="Path"></path>
                    <path d="M199.383333,77.575 C199.383333,78.325 200.058333,79 200.808333,79 L205.758333,79 C206.508333,79 207.183333,78.325 207.183333,77.575 L207.183333,33.55 L219.408333,33.55 C220.233333,33.55 220.833333,32.875 220.833333,32.125 L220.833333,27.925 C220.833333,27.175 220.233333,26.5 219.408333,26.5 L187.158333,26.5 C186.333333,26.5 185.733333,27.175 185.733333,27.925 L185.733333,32.125 C185.733333,32.875 186.333333,33.55 187.158333,33.55 L199.383333,33.55 L199.383333,77.575 Z" id="Path"></path>
                    <path d="M221.141667,79 L225.866667,79 C226.766667,79 227.366667,78.4 227.591667,77.875 C229.091667,74.425 230.666667,71.05 232.166667,67.6 L256.691667,67.6 L261.341667,77.875 C261.641667,78.55 262.166667,79 263.066667,79 L267.791667,79 C268.916667,79 269.516667,78.025 269.066667,77.05 L246.191667,26.575 C245.966667,26.125 245.291667,25.75 244.916667,25.75 L244.166667,25.75 C243.791667,25.75 243.116667,26.125 242.891667,26.575 L219.866667,77.05 C219.416667,78.025 220.016667,79 221.141667,79 Z M235.091667,61.15 L244.241667,40.6 L244.616667,40.6 L253.841667,61.15 L235.091667,61.15 Z" id="Shape"></path>
                    <path d="M273.275,52.825 C273.275,67.825 285.35,79.75 300.275,79.75 C311.15,79.75 318.875,74.8 318.875,74.8 C319.175,74.575 319.475,73.975 319.475,73.6 C319.475,67.6 319.4,61.45 319.4,55.45 C319.4,54.7 318.8,54.025 318.05,54.025 L304.4,54.025 C303.575,54.025 302.975,54.625 302.975,55.45 L302.975,59.8 C302.975,60.55 303.575,61.15 304.4,61.15 L311.75,61.15 L311.75,69.55 C311,69.85 306.725,72.1 300.5,72.1 C289.85,72.1 281.675,63.1 281.675,52.675 C281.675,42.175 289.85,33.175 300.5,33.175 C305.075,33.175 309.725,35.2 313.25,38.275 C314,38.95 314.6,39.025 315.2,38.35 C316.325,37.15 317.45,36.025 318.575,34.825 C319.175,34.225 319.1,33.325 318.5,32.725 C313.4,28.375 307.475,25.75 300.275,25.75 C285.35,25.75 273.275,37.825 273.275,52.825 Z" id="Path"></path>
                    <path d="M332.083333,77.575 C332.083333,78.325 332.683333,79 333.508333,79 L363.508333,79 C364.333333,79 364.933333,78.325 364.933333,77.575 L364.933333,73.45 C364.933333,72.7 364.333333,72.025 363.508333,72.025 L339.808333,72.025 L339.808333,55.9 L359.833333,55.9 C360.583333,55.9 361.258333,55.3 361.258333,54.475 L361.258333,50.275 C361.258333,49.525 360.583333,48.85 359.833333,48.85 L339.808333,48.85 L339.808333,33.55 L363.508333,33.55 C364.333333,33.55 364.933333,32.875 364.933333,32.125 L364.933333,27.925 C364.933333,27.175 364.333333,26.5 363.508333,26.5 L333.508333,26.5 C332.683333,26.5 332.083333,27.175 332.083333,27.925 L332.083333,77.575 Z" id="Path"></path>
                </g>
            </g>
            <g id="Accounting-Group" transform="translate(1, 193)" fill="#FFFFFF" fill-opacity="0.345416302" fill-rule="nonzero">
                <path d="M12.0701481,29 L13.8341481,29 C14.1701481,29 14.3941481,28.776 14.4781481,28.58 C15.0381481,27.292 15.6261481,26.032 16.1861481,24.744 L25.3421481,24.744 L27.0781481,28.58 C27.1901481,28.832 27.3861481,29 27.7221481,29 L29.4861481,29 C29.9061481,29 30.1301481,28.636 29.9621481,28.272 L21.4221481,9.428 C21.3381481,9.26 21.0861481,9.12 20.9461481,9.12 L20.6661481,9.12 C20.5261481,9.12 20.2741481,9.26 20.1901481,9.428 L11.5941481,28.272 C11.4261481,28.636 11.6501481,29 12.0701481,29 Z M17.2781481,22.336 L20.6941481,14.664 L20.8341481,14.664 L24.2781481,22.336 L17.2781481,22.336 Z" id="Shape"></path>
                <path d="M34.2036296,19.228 C34.2036296,24.828 38.7116296,29.28 44.3116296,29.28 C46.8036296,29.28 49.2116296,28.412 51.1156296,26.564 C51.3116296,26.368 51.3676296,26.004 51.1436296,25.808 L49.8556296,24.548 C49.6876296,24.408 49.4356296,24.38 49.1836296,24.576 C47.8396296,25.612 46.4116296,26.424 44.3676296,26.424 C40.3636296,26.424 37.3116296,23.092 37.3116296,19.172 C37.3116296,15.252 40.3356296,11.892 44.3396296,11.892 C46.0756296,11.892 47.8676296,12.62 49.1836296,13.768 C49.4356296,14.02 49.6876296,14.02 49.8836296,13.768 L51.1156296,12.508 C51.3396296,12.284 51.3396296,11.948 51.0876296,11.724 C49.1836296,10.072 47.1396296,9.12 44.3116296,9.12 C38.7116296,9.12 34.2036296,13.628 34.2036296,19.228 Z" id="Path"></path>
                <path d="M56.5891111,19.228 C56.5891111,24.828 61.0971111,29.28 66.6971111,29.28 C69.1891111,29.28 71.5971111,28.412 73.5011111,26.564 C73.6971111,26.368 73.7531111,26.004 73.5291111,25.808 L72.2411111,24.548 C72.0731111,24.408 71.8211111,24.38 71.5691111,24.576 C70.2251111,25.612 68.7971111,26.424 66.7531111,26.424 C62.7491111,26.424 59.6971111,23.092 59.6971111,19.172 C59.6971111,15.252 62.7211111,11.892 66.7251111,11.892 C68.4611111,11.892 70.2531111,12.62 71.5691111,13.768 C71.8211111,14.02 72.0731111,14.02 72.2691111,13.768 L73.5011111,12.508 C73.7251111,12.284 73.7251111,11.948 73.4731111,11.724 C71.5691111,10.072 69.5251111,9.12 66.6971111,9.12 C61.0971111,9.12 56.5891111,13.628 56.5891111,19.228 Z" id="Path"></path>
                <path d="M78.9745926,19.228 C78.9745926,24.828 83.4265926,29.28 89.0265926,29.28 C94.6265926,29.28 99.1065926,24.828 99.1065926,19.228 C99.1065926,13.628 94.6265926,9.12 89.0265926,9.12 C83.4265926,9.12 78.9745926,13.628 78.9745926,19.228 Z M81.7745926,19.228 C81.7745926,15.252 85.0505926,11.92 89.0265926,11.92 C93.0305926,11.92 96.3065926,15.252 96.3065926,19.228 C96.3065926,23.232 93.0305926,26.48 89.0265926,26.48 C85.0505926,26.48 81.7745926,23.232 81.7745926,19.228 Z" id="Shape"></path>
                <path d="M105.840074,21.692 C105.840074,25.948 109.032074,29.28 113.428074,29.28 C117.852074,29.28 121.072074,25.948 121.072074,21.692 L121.072074,9.932 C121.072074,9.652 120.820074,9.4 120.540074,9.4 L118.664074,9.4 C118.356074,9.4 118.132074,9.652 118.132074,9.932 L118.132074,21.552 C118.132074,24.324 116.312074,26.48 113.428074,26.48 C110.572074,26.48 108.780074,24.296 108.780074,21.496 L108.780074,9.932 C108.780074,9.652 108.556074,9.4 108.248074,9.4 L106.372074,9.4 C106.092074,9.4 105.840074,9.652 105.840074,9.932 L105.840074,21.692 Z" id="Path"></path>
                <path d="M129.233556,28.468 C129.233556,28.748 129.485556,29 129.765556,29 L131.529556,29 C131.837556,29 132.061556,28.748 132.061556,28.468 L132.061556,14.832 C132.061556,14.832 132.089556,14.832 132.089556,14.832 L144.241556,29.28 L144.969556,29.28 C145.249556,29.28 145.501556,29.056 145.501556,28.776 L145.501556,9.932 C145.501556,9.652 145.249556,9.4 144.969556,9.4 L143.177556,9.4 C142.869556,9.4 142.645556,9.652 142.645556,9.932 L142.645556,23.176 C142.645556,23.176 142.617556,23.176 142.617556,23.176 L130.465556,9.12 L129.765556,9.12 C129.485556,9.12 129.233556,9.344 129.233556,9.624 L129.233556,28.468 Z" id="Path"></path>
                <path d="M156.603037,28.468 C156.603037,28.748 156.855037,29 157.135037,29 L158.983037,29 C159.263037,29 159.515037,28.748 159.515037,28.468 L159.515037,12.032 L164.079037,12.032 C164.387037,12.032 164.611037,11.78 164.611037,11.5 L164.611037,9.932 C164.611037,9.652 164.387037,9.4 164.079037,9.4 L152.039037,9.4 C151.731037,9.4 151.507037,9.652 151.507037,9.932 L151.507037,11.5 C151.507037,11.78 151.731037,12.032 152.039037,12.032 L156.603037,12.032 L156.603037,28.468 Z" id="Path"></path>
                <path d="M170.616519,28.468 C170.616519,28.748 170.868519,29 171.148519,29 L172.996519,29 C173.276519,29 173.528519,28.748 173.528519,28.468 L173.528519,9.932 C173.528519,9.652 173.276519,9.4 172.996519,9.4 L171.148519,9.4 C170.868519,9.4 170.616519,9.652 170.616519,9.932 L170.616519,28.468 Z" id="Path"></path>
                <path d="M181.942,28.468 C181.942,28.748 182.194,29 182.474,29 L184.238,29 C184.546,29 184.77,28.748 184.77,28.468 L184.77,14.832 C184.77,14.832 184.798,14.832 184.798,14.832 L196.95,29.28 L197.678,29.28 C197.958,29.28 198.21,29.056 198.21,28.776 L198.21,9.932 C198.21,9.652 197.958,9.4 197.678,9.4 L195.886,9.4 C195.578,9.4 195.354,9.652 195.354,9.932 L195.354,23.176 C195.354,23.176 195.326,23.176 195.326,23.176 L183.174,9.12 L182.474,9.12 C182.194,9.12 181.942,9.344 181.942,9.624 L181.942,28.468 Z" id="Path"></path>
                <path d="M205.195481,19.228 C205.195481,24.828 209.703481,29.28 215.275481,29.28 C219.335481,29.28 222.219481,27.432 222.219481,27.432 C222.331481,27.348 222.443481,27.124 222.443481,26.984 C222.443481,24.744 222.415481,22.448 222.415481,20.208 C222.415481,19.928 222.191481,19.676 221.911481,19.676 L216.815481,19.676 C216.507481,19.676 216.283481,19.9 216.283481,20.208 L216.283481,21.832 C216.283481,22.112 216.507481,22.336 216.815481,22.336 L219.559481,22.336 L219.559481,25.472 C219.279481,25.584 217.683481,26.424 215.359481,26.424 C211.383481,26.424 208.331481,23.064 208.331481,19.172 C208.331481,15.252 211.383481,11.892 215.359481,11.892 C217.067481,11.892 218.803481,12.648 220.119481,13.796 C220.399481,14.048 220.623481,14.076 220.847481,13.824 C221.267481,13.376 221.687481,12.956 222.107481,12.508 C222.331481,12.284 222.303481,11.948 222.079481,11.724 C220.175481,10.1 217.963481,9.12 215.275481,9.12 C209.703481,9.12 205.195481,13.628 205.195481,19.228 Z" id="Path"></path>
                <path d="M237.534444,19.228 C237.534444,24.828 242.042444,29.28 247.614444,29.28 C251.674444,29.28 254.558444,27.432 254.558444,27.432 C254.670444,27.348 254.782444,27.124 254.782444,26.984 C254.782444,24.744 254.754444,22.448 254.754444,20.208 C254.754444,19.928 254.530444,19.676 254.250444,19.676 L249.154444,19.676 C248.846444,19.676 248.622444,19.9 248.622444,20.208 L248.622444,21.832 C248.622444,22.112 248.846444,22.336 249.154444,22.336 L251.898444,22.336 L251.898444,25.472 C251.618444,25.584 250.022444,26.424 247.698444,26.424 C243.722444,26.424 240.670444,23.064 240.670444,19.172 C240.670444,15.252 243.722444,11.892 247.698444,11.892 C249.406444,11.892 251.142444,12.648 252.458444,13.796 C252.738444,14.048 252.962444,14.076 253.186444,13.824 C253.606444,13.376 254.026444,12.956 254.446444,12.508 C254.670444,12.284 254.642444,11.948 254.418444,11.724 C252.514444,10.1 250.302444,9.12 247.614444,9.12 C242.042444,9.12 237.534444,13.628 237.534444,19.228 Z" id="Path"></path>
                <path d="M262.159926,28.468 C262.159926,28.748 262.383926,29 262.691926,29 L264.511926,29 C264.791926,29 265.043926,28.748 265.043926,28.468 L265.043926,21.328 L269.271926,21.328 L272.995926,28.748 C273.051926,28.86 273.219926,29 273.443926,29 L275.627926,29 C276.103926,29 276.299926,28.552 276.103926,28.188 L272.267926,21.076 C274.703926,20.096 276.411926,17.968 276.411926,15.392 C276.411926,12.06 273.667926,9.4 270.307926,9.4 L262.691926,9.4 C262.383926,9.4 262.159926,9.652 262.159926,9.932 L262.159926,28.468 Z M265.099926,18.92 L265.099926,12.116 L270.083926,12.116 C271.903926,12.116 273.499926,13.628 273.499926,15.448 C273.499926,17.38 271.903926,18.92 270.083926,18.92 L265.099926,18.92 Z" id="Shape"></path>
                <path d="M282.333407,19.228 C282.333407,24.828 286.785407,29.28 292.385407,29.28 C297.985407,29.28 302.465407,24.828 302.465407,19.228 C302.465407,13.628 297.985407,9.12 292.385407,9.12 C286.785407,9.12 282.333407,13.628 282.333407,19.228 Z M285.133407,19.228 C285.133407,15.252 288.409407,11.92 292.385407,11.92 C296.389407,11.92 299.665407,15.252 299.665407,19.228 C299.665407,23.232 296.389407,26.48 292.385407,26.48 C288.409407,26.48 285.133407,23.232 285.133407,19.228 Z" id="Shape"></path>
                <path d="M309.198889,21.692 C309.198889,25.948 312.390889,29.28 316.786889,29.28 C321.210889,29.28 324.430889,25.948 324.430889,21.692 L324.430889,9.932 C324.430889,9.652 324.178889,9.4 323.898889,9.4 L322.022889,9.4 C321.714889,9.4 321.490889,9.652 321.490889,9.932 L321.490889,21.552 C321.490889,24.324 319.670889,26.48 316.786889,26.48 C313.930889,26.48 312.138889,24.296 312.138889,21.496 L312.138889,9.932 C312.138889,9.652 311.914889,9.4 311.606889,9.4 L309.730889,9.4 C309.450889,9.4 309.198889,9.652 309.198889,9.932 L309.198889,21.692 Z" id="Path"></path>
                <path d="M332.59237,28.468 C332.59237,28.748 332.81637,29 333.12437,29 L334.94437,29 C335.22437,29 335.47637,28.748 335.47637,28.468 L335.47637,21.888 L339.53637,21.888 C342.95237,21.888 345.78037,19.06 345.78037,15.588 C345.78037,12.2 342.95237,9.4 339.50837,9.4 L333.12437,9.4 C332.81637,9.4 332.59237,9.652 332.59237,9.932 L332.59237,28.468 Z M335.47637,19.144 L335.47637,12.2 L339.34037,12.2 C341.27237,12.2 342.89637,13.656 342.89637,15.56 C342.89637,17.576 341.27237,19.144 339.34037,19.144 L335.47637,19.144 Z" id="Shape"></path>
            </g>
        </g>
    </g>
</svg>