<?xml version="1.0" encoding="UTF-8"?>
<svg width="2100px" height="1200px" viewBox="0 0 2100 1200" version="1.1" xmlns="http://www.w3.org/2000/svg" xmlns:xlink="http://www.w3.org/1999/xlink">
    <title>ScaleIP</title>
    <defs>
        <path d="M0,0 L2100,0 L2100,1200 L0,1200 L0,0 Z" id="path-1"></path>
    </defs>
    <g id="ScaleIP" stroke="none" fill="none" xlink:href="#path-1" fill-rule="evenodd" stroke-width="1">
        <g id="Group" transform="translate(281, 454)">
            <path d="M45.0820809,0 L247.956024,0 C272.855105,0 293.038105,20.180375 293.038105,45.0762188 L293.038105,247.923781 C293.038105,272.819625 272.855105,293 247.956024,293 L45.0820809,293 C20.1829995,293 0,272.819625 0,247.923781 L0,45.0762188 C0,20.180375 20.1829995,0 45.0820809,0 Z M45.0820809,22.5381094 C32.633008,22.5381094 22.5410405,32.6287647 22.5410405,45.0762187 L22.5410405,247.923781 C22.5410405,260.371235 32.633008,270.461891 45.0820809,270.461891 L247.956024,270.461891 C260.405097,270.461891 270.497064,260.371235 270.497064,247.923781 L270.497064,45.0762187 C270.497064,32.6287647 260.405097,22.5381094 247.956024,22.5381094 L45.0820809,22.5381094 Z" id="Shape" fill="#00B977"></path>
            <path d="M159.911809,153.509109 C163.322956,147.589594 166.431907,141.926453 169.316501,136.647875 L170.14525,135.127937 C172.750541,130.366687 175.149791,125.971687 177.516989,121.837641 C182.77336,112.635609 187.407025,105.548672 192.457354,100.091547 C197.329112,94.8175469 202.544275,91.1184219 209.087266,88.7652656 C215.772198,86.3663281 224.609128,85.1027656 237.022039,85.8718906 C241.885581,86.2435828 246.572536,83.9681343 249.288222,79.9168377 C252.003908,75.865541 252.327595,70.6660454 250.135342,66.3092909 C247.943088,61.9525363 243.574529,59.1134953 238.70243,58.8792656 C223.74375,57.9499062 211.024065,59.3370781 199.943562,63.3154687 C188.716539,67.3442187 179.957447,73.76275 172.590286,81.7286875 C165.401695,89.5023437 159.550091,98.7593125 154.032732,108.414578 C151.528172,112.791266 148.99614,117.424328 146.422899,122.139797 L145.580415,123.678047 C142.563252,129.241829 139.480029,134.769543 136.331399,140.260016 C134.019146,144.412375 131.876305,148.322094 129.843353,152.039531 C125.827815,159.378266 122.228941,165.957031 118.556807,172.091719 C113.117287,181.174719 108.144797,188.183828 102.737328,193.540234 C92.8839217,203.305375 80.0818195,209.165375 54.9354872,207.599656 C47.479446,207.136954 41.0599873,212.805389 40.5972247,220.260461 C40.1344621,227.715533 45.8036344,234.134157 53.2596755,234.596859 C84.3491869,236.528828 105.30599,229.071062 121.780226,212.750047 C129.541157,205.058797 135.873527,195.824719 141.766341,185.977172 C145.70404,179.398406 149.728735,172.050516 153.904528,164.414203 C155.873378,160.824953 157.8697,157.176187 159.911809,153.509109 L159.911809,153.509109 Z" id="Path" fill="#00B977"></path>
            <path d="M1388.05282,256.375 L1388.05282,50.359375 L1471.29396,50.359375 C1513.60133,50.359375 1536.40336,77.828125 1536.40336,109.1425 C1536.40336,140.456875 1513.87606,168.475 1471.29396,168.475 L1430.90964,168.475 L1430.90964,256.375 L1388.05282,256.375 Z M1430.90964,133.040313 L1467.17311,133.040313 C1485.57957,133.040313 1493.27182,124.525 1493.27182,109.1425 C1493.27182,94.0346875 1485.57957,85.519375 1467.17311,85.519375 L1430.90964,85.519375 L1430.90964,133.040313 L1430.90964,133.040313 Z M1225.33426,256.375 L1225.33426,221.215 L1265.71857,221.215 L1265.71857,85.519375 L1225.33426,85.519375 L1225.33426,50.359375 L1349.50915,50.359375 L1349.50915,85.519375 L1308.85012,85.519375 L1308.85012,221.215 L1349.50915,221.215 L1349.50915,256.375 L1225.33426,256.375 Z M1161.79993,196.31 L1190.8107,220.922 C1175.86576,244.362 1150.37145,256.375 1122.82586,256.375 C1073.00939,256.375 1047.80811,218.578 1047.80811,172.284 C1047.80811,125.99 1073.30242,88.486 1122.82586,88.486 C1172.93538,88.486 1197.55058,125.99 1197.55058,172.577 L1197.55058,185.176 L1091.76382,185.176 C1093.81509,203.928 1102.02016,218.871 1122.82586,218.871 C1140.70119,218.871 1153.59486,212.132 1161.79993,196.31 L1161.79993,196.31 Z M1092.64294,153.239 L1152.71575,153.239 C1149.49233,136.538 1140.70119,125.99 1122.82586,125.99 C1104.95054,125.99 1096.1594,136.831 1092.64294,153.239 Z M906.279862,256.375 L906.279862,218.871 L940.858358,218.871 L940.858358,74.129 L906.279862,74.129 L906.279862,36.625 L983.93496,36.625 L983.93496,218.871 L1018.51346,218.871 L1018.51346,256.375 L906.279862,256.375 Z M822.374811,256.375 L822.374811,241.725 C810.067211,251.687 794.829229,256.375 779.005171,256.375 C746.184904,256.375 721.276665,238.795 721.276665,204.221 C721.276665,148.844 782.521629,151.188 822.081773,151.188 C820.030506,135.073 810.360249,125.99 793.950115,125.99 C777.833019,125.99 762.888076,132.436 750.873513,142.691 L734.170341,111.633 C752.631742,97.569 772.558333,88.486 796.29442,88.486 C841.12925,88.486 865.158374,115.149 865.158374,158.806 L865.158374,256.375 L822.374811,256.375 Z M822.374811,202.756 L822.374811,184.883 L800.983029,184.883 C788.968467,184.883 764.353266,185.469 764.353266,202.463 C764.353266,216.527 775.195676,218.871 787.210238,218.871 C800.396953,218.871 815.048858,214.476 822.374811,202.756 L822.374811,202.756 Z M662.632414,192.208 L703.657749,201.877 C692.229263,236.158 670.251405,256.375 632.742527,256.375 C582.339973,256.375 557.724773,219.164 557.724773,172.284 C557.724773,125.697 582.92605,88.486 632.742527,88.486 C669.665329,88.486 693.401415,108.996 703.657749,143.277 L662.632414,152.653 C657.943804,136.538 651.203928,125.99 632.742527,125.99 C605.489984,125.99 600.801374,150.309 600.801374,172.577 C600.801374,194.845 605.783022,218.871 632.742527,218.871 C651.203928,218.871 657.943804,208.323 662.632414,192.208 L662.632414,192.208 Z M384.612512,198.690625 L426.919889,191.274063 C432.13963,212.699688 442.029666,218.468125 464.007524,218.468125 C478.018408,218.468125 496.699587,214.897188 496.699587,197.317188 C496.699587,161.8825 387.909191,180.835938 387.909191,106.120938 C387.909191,64.9178125 426.370442,50.359375 461.260292,50.359375 C503.292945,50.359375 532.138883,64.3684375 540.38058,107.769063 L497.79848,115.460313 C493.677632,92.9359375 483.512873,88.26625 461.260292,88.26625 C451.095532,88.26625 431.040737,92.9359375 431.040737,106.120938 C431.040737,144.851875 539.831133,121.503437 539.831133,197.317187 C539.831133,240.9925 502.194052,256.375 464.007524,256.375 C421.974871,256.375 392.854209,242.09125 384.612512,198.690625 Z" id="Shape" fill="#030F0D" fill-rule="nonzero"></path>
        </g>
    </g>
</svg>