<?xml version="1.0" encoding="UTF-8"?>
<svg width="500px" height="286px" viewBox="0 0 500 286" version="1.1" xmlns="http://www.w3.org/2000/svg" xmlns:xlink="http://www.w3.org/1999/xlink">
    <title>StormBreakers</title>
    <defs>
        <polygon id="path-1" points="385 0 0 0 0 109 385 109"></polygon>
    </defs>
    <g id="StormBreakers" stroke="none" fill="none" fill-rule="evenodd" stroke-width="1">
        <g id="myIcon-(29)" transform="translate(57, 87)">
            <g id="Clipped" transform="translate(0, 1)">
                <mask id="mask-2" fill="white">
                    <use xlink:href="#path-1"></use>
                </mask>
                <g id="Path"></g>
                <g id="Group" mask="url(#mask-2)" fill="#FFFFFF" fill-rule="nonzero">
                    <g transform="translate(0, 0)">
                        <path d="M158.337667,103.819244 L158.337667,108.310934 L149.328667,108.310934 L149.328667,60.0252645 L158.337667,60.0252645 L158.337667,78.2982768 C159.723667,75.873785 163.471,73.1175205 168.322,73.1175205 C178.383333,73.1175205 183.722,81.7436074 183.722,91.0587603 C183.722,100.373913 178.383333,109 168.322,109 C163.471,109 159.723667,106.243736 158.337667,103.819244 Z M166.807667,101.752045 C171.325,101.752045 174.713,97.5410859 174.713,90.9821974 C174.713,84.4233089 171.299333,80.3654751 166.807667,80.3654751 L166.243,80.3654751 C162.085,80.3654751 158.337667,84.4998718 158.337667,91.0587603 C158.337667,97.6176488 162.085,101.752045 166.243,101.752045 L166.807667,101.752045 Z" id="Shape"></path>
                        <path d="M190.652,73.8065866 L199.661,73.8065866 L199.661,80.6972477 C201.047,76.2055575 204.512,73.4492931 209.722333,73.4492931 L211.467667,73.4492931 L211.467667,81.7180864 L208.336333,81.7180864 C202.433,81.7180864 199.661,84.4743508 199.661,90.3441732 L199.661,108.285413 L190.652,108.285413 L190.652,73.8065866 Z" id="Path"></path>
                        <path d="M214.368,91.0586185 C214.368,80.7226269 220.476667,73.1173788 230.871667,73.1173788 C241.266667,73.1173788 246.682333,80.646064 246.682333,90.624762 C246.682333,91.6456007 246.605333,92.7685233 246.554,93.8659248 L223.120333,93.8659248 C223.454,98.6128247 227.201333,101.726383 230.948667,101.726383 L231.513333,101.726383 C234.901333,101.726383 237.006,99.7357472 237.622,97.3878183 L246.579667,97.3878183 C244.911333,104.150875 239.572667,108.974337 230.897333,108.974337 C222.222,108.974337 214.393667,102.415449 214.393667,91.0330975 M237.955667,87.0007848 C237.750333,82.8663881 234.567667,80.3908543 230.820333,80.3908543 L230.255667,80.3908543 C226.508333,80.3908543 223.325667,82.8663881 223.120333,87.0007848 L237.955667,87.0007848 Z" id="Shape"></path>
                        <path d="M282.359,108.310792 L273.889,108.310792 C273.683667,107.264432 273.555333,105.682133 273.478333,104.099833 C271.399333,107.060265 267.729,108.999858 263.211667,108.999858 C256.974667,108.999858 251.841333,105.069629 251.841333,98.8680344 C251.841333,91.415912 257.667667,88.0471444 264.546333,87.4856831 L273.273,86.7200541 L273.273,85.9033832 C273.273,82.7898252 271.117,80.3908543 267.729,80.3908543 L267.164333,80.3908543 C263.776333,80.3908543 261.748667,82.5346155 261.543333,84.525251 L252.534333,84.525251 C253.227333,78.0429254 258.771333,73.1428997 267.446667,73.1428997 C276.122,73.1428997 281.999667,77.4814641 281.999667,85.5716106 L281.999667,100.756586 C281.999667,102.823784 281.999667,105.937342 282.359,108.336313 M273.273,94.2232184 L273.273,93.2534216 L265.778333,94.0190506 C263.494,94.2232184 260.722,95.3971829 260.722,98.2300102 C260.722,100.373771 262.595667,101.751904 265.008333,101.751904 L265.573,101.751904 C269.602667,101.751904 273.273,98.7149086 273.273,94.2232184 Z" id="Shape"></path>
                        <polygon id="Path" points="303.713667 93.9426295 299.684 98.0259842 299.684 108.310934 290.675 108.310934 290.675 60.0252645 299.684 60.0252645 299.684 86.643633 312.235 73.8065866 323.271667 73.8065866 309.950667 87.5368668 323.964667 108.310934 313.364333 108.310934"></polygon>
                        <path d="M324.734667,91.0586185 C324.734667,80.7226269 330.843333,73.1173788 341.238333,73.1173788 C351.633333,73.1173788 357.049,80.646064 357.049,90.624762 C357.049,91.6456007 356.972,92.7685233 356.920667,93.8659248 L333.487,93.8659248 C333.846333,98.6128247 337.593667,101.726383 341.315333,101.726383 L341.88,101.726383 C345.268,101.726383 347.347,99.7357472 347.988667,97.3878183 L356.946333,97.3878183 C355.278,104.150875 349.939333,108.974337 341.264,108.974337 C332.588667,108.974337 324.760333,102.415449 324.760333,91.0330975 M348.322333,87.0007848 C348.117,82.8663881 344.934333,80.3908543 341.187,80.3908543 L340.622333,80.3908543 C336.875,80.3908543 333.692333,82.8663881 333.487,87.0007848 L348.322333,87.0007848 Z" id="Shape"></path>
                        <path d="M364.184333,73.8065866 L373.193333,73.8065866 L373.193333,80.6972477 C374.579333,76.2055575 378.044333,73.4492931 383.254667,73.4492931 L384.974333,73.4492931 L384.974333,81.7180864 L381.843,81.7180864 C375.939667,81.7180864 373.167667,84.4743508 373.167667,90.3441732 L373.167667,108.285413 L364.158667,108.285413 L364.158667,73.8065866 L364.184333,73.8065866 Z" id="Path"></path>
                        <polygon id="Path" points="0 96.3160795 0 24.1172641 35.2403333 24.0917431 35.2403333 32.7178299 8.67533333 32.7178299 8.67533333 87.7155136 134.955333 87.6899926 134.955333 96.2905585"></polygon>
                        <path d="M45.9170963,34.2750343 L55.1314296,34.2750343 C55.1314296,37.3885922 57.492763,39.4557906 60.957763,39.4557906 L61.5224296,39.4557906 C64.2944296,39.4557906 66.2450963,38.1542212 66.2450963,36.0870229 C66.2450963,34.3005552 65.0644296,33.2541956 62.574763,32.6416924 L58.0574296,31.5442908 C50.7680963,29.7578231 47.3030963,26.7208281 47.3030963,21.1317363 C47.3030963,14.9301414 52.564763,10.5149999 61.2400963,10.5149999 C69.9154296,10.5149999 75.4594296,15.0067043 75.4594296,22.2546589 L66.4504296,22.2546589 C66.0910963,19.2942267 64.3714296,17.4311961 61.2400963,17.4311961 L60.6754296,17.4311961 C58.2370963,17.4311961 56.1580963,18.4009929 56.1580963,20.7999637 C56.1580963,22.6629943 57.877763,23.6327911 60.726763,24.3218572 L65.3724296,25.4958217 C72.0200963,27.1546845 75.0744296,30.3192844 75.0744296,35.7807713 C75.0744296,41.6505937 70.3004296,46.3974935 60.9320963,46.3974935 C51.563763,46.3974935 45.8914296,41.9058034 45.8914296,34.3260762" id="Path"></path>
                        <path d="M85.8551426,36.6991008 L85.8551426,18.4260885 L78.7198093,18.4260885 L78.7198093,11.1781906 L85.8551426,11.1781906 L85.8551426,0 L94.8641426,0 L94.8641426,11.1781906 L102.641143,11.1781906 L102.641143,18.4260885 L94.8641426,18.4260885 L94.8641426,34.3001299 C94.8641426,37.4136878 95.5571426,38.102754 98.6884759,38.102754 L103.667809,38.102754 L103.667809,45.6824811 L94.8641426,45.6824811 C88.9608093,45.6824811 85.8551426,42.5689232 85.8551426,36.7246217" id="Path"></path>
                        <path d="M107.697048,28.4050701 C107.697048,18.0690785 114.627048,10.4637737 125.047715,10.4637737 C135.468381,10.4637737 142.372715,18.0435575 142.372715,28.4050701 C142.372715,38.7665827 135.442715,46.3463098 125.047715,46.3463098 C114.652715,46.3463098 107.697048,38.7665827 107.697048,28.4050701 Z M125.330048,39.0983552 C130.181048,39.0983552 133.312381,35.1681263 133.312381,28.4050701 C133.312381,21.6420139 130.181048,17.711785 125.330048,17.711785 L124.765381,17.711785 C119.914381,17.711785 116.783048,21.6420139 116.783048,28.4050701 C116.783048,35.1681263 119.914381,39.0983552 124.765381,39.0983552 L125.330048,39.0983552 Z" id="Shape"></path>
                        <path d="M149.328667,11.178304 L158.337667,11.178304 L158.337667,18.0689367 C159.723667,13.5772465 163.188667,10.8210105 168.399,10.8210105 L170.144333,10.8210105 L170.144333,19.0897754 L167.013,19.0897754 C161.109667,19.0897754 158.337667,21.8460398 158.337667,27.7158622 L158.337667,45.6571019 L149.328667,45.6571019 L149.328667,11.178304 Z" id="Path"></path>
                        <path d="M175.893667,11.17846 L184.902667,11.17846 L184.902667,16.0784431 C187.315333,12.1482567 191.345,10.4893939 195.246333,10.4893939 C200.097333,10.4893939 203.921667,12.4800293 205.872333,16.4357366 C208.516,12.2248196 212.956333,10.4893939 217.319667,10.4893939 C226.328667,10.4893939 229.665333,16.3591737 229.665333,23.9389009 L229.665333,45.6572437 L220.656333,45.6572437 L220.656333,24.9597396 C220.656333,20.4680494 219.065,18.0690785 215.317667,18.0690785 L214.753,18.0690785 C210.595,18.0690785 207.335333,21.6420139 207.335333,26.4909976 L207.335333,45.6572437 L198.326333,45.6572437 L198.326333,24.9597396 C198.326333,20.4680494 196.658,18.0690785 192.910667,18.0690785 L192.346,18.0690785 C188.188,18.0690785 184.928333,21.6420139 184.928333,26.4909976 L184.928333,45.6572437 L175.919333,45.6572437 L175.919333,11.17846 L175.893667,11.17846 Z" id="Path"></path>
                    </g>
                </g>
            </g>
        </g>
    </g>
</svg>